M48
METRIC,LZ,000.000
;FILE_FORMAT=3:3
;TYPE=PLATED
;Layer: PTH_Through
;EasyEDA v6.5.15, 2022-09-09 10:58:47
;19121817273c46a5bb41958087e4de9f,cdadd2d4b4cb47a19753abecc85b3b56,10
;Gerber Generator version 0.2
;Holesize 1 = 0.305 mm
T01C0.305
;Holesize 2 = 0.701 mm
T02C0.701
;Holesize 3 = 0.712 mm
T03C0.712
;Holesize 4 = 0.900 mm
T04C0.900
;Holesize 5 = 1.000 mm
T05C1.000
;Holesize 6 = 1.141 mm
T06C1.141
%
G05
G90
T01
X048768Y-029134
X048768Y-025121
X048768Y-027127
X055118Y-037338
X033519Y-022860
T02
X031369Y-027813
X031369Y-029083
X031369Y-030353
X021664Y-024524G85X022564Y-024524
X023664Y-024524G85X024564Y-024524
X020164Y-026524G85X021064Y-026524
X025164Y-026524G85X026064Y-026524
X020664Y-028524G85X021564Y-028524
X022664Y-028524G85X023564Y-028524
X024664Y-028524G85X025564Y-028524
T03
X042167Y-038684
X044707Y-038684
X042167Y-041478
X044707Y-041478
T04
X021844Y-018796
X024384Y-018796
X026924Y-018796
T05
X020955Y-033371
X020955Y-039370
X024956Y-033371
X024956Y-039370
X028829Y-033371
X028829Y-039370
X032830Y-033371
X032830Y-039370
T06
X055118Y-023622
X055118Y-021082
X055118Y-018542
X055119Y-016001
X055118Y-026162
X055118Y-028702
M30
