G04 Layer: TopPasteMaskLayer*
G04 EasyEDA v6.5.15, 2022-09-09 10:58:47*
G04 19121817273c46a5bb41958087e4de9f,cdadd2d4b4cb47a19753abecc85b3b56,10*
G04 Gerber Generator version 0.2*
G04 Scale: 100 percent, Rotated: No, Reflected: No *
G04 Dimensions in millimeters *
G04 leading zeros omitted , absolute positions ,4 integer and 5 decimal *
%FSLAX45Y45*%
%MOMM*%

%ADD10R,2.0000X1.1989*%

%LPD*%
G36*
X5662320Y-3457143D02*
G01*
X5657291Y-3462172D01*
X5657291Y-3542182D01*
X5662320Y-3547160D01*
X5742330Y-3547160D01*
X5747308Y-3542182D01*
X5747308Y-3462172D01*
X5742330Y-3457143D01*
X5719521Y-3457143D01*
X5719521Y-3494176D01*
X5686501Y-3494176D01*
X5686501Y-3457143D01*
G37*
G36*
X5662320Y-3298139D02*
G01*
X5657291Y-3303168D01*
X5657291Y-3382162D01*
X5662320Y-3387140D01*
X5686501Y-3387140D01*
X5686501Y-3349142D01*
X5719521Y-3349142D01*
X5719521Y-3387140D01*
X5742330Y-3387140D01*
X5747308Y-3382162D01*
X5747308Y-3303168D01*
X5742330Y-3298139D01*
G37*
G36*
X3157118Y-2063191D02*
G01*
X3152089Y-2068220D01*
X3152089Y-2148179D01*
X3157118Y-2153208D01*
X3237077Y-2153208D01*
X3242106Y-2148179D01*
X3242106Y-2125421D01*
X3205124Y-2125421D01*
X3205124Y-2092401D01*
X3242106Y-2092401D01*
X3242106Y-2068220D01*
X3237077Y-2063191D01*
G37*
G36*
X3317087Y-2063191D02*
G01*
X3312109Y-2068220D01*
X3312109Y-2092401D01*
X3350107Y-2092401D01*
X3350107Y-2125421D01*
X3312109Y-2125421D01*
X3312109Y-2148179D01*
X3317087Y-2153208D01*
X3396081Y-2153208D01*
X3401110Y-2148179D01*
X3401110Y-2068220D01*
X3396081Y-2063191D01*
G37*
G36*
X5294020Y-3457143D02*
G01*
X5288991Y-3462172D01*
X5288991Y-3542182D01*
X5294020Y-3547160D01*
X5373979Y-3547160D01*
X5379008Y-3542182D01*
X5379008Y-3462172D01*
X5373979Y-3457143D01*
X5351221Y-3457143D01*
X5351221Y-3494176D01*
X5318201Y-3494176D01*
X5318201Y-3457143D01*
G37*
G36*
X5294020Y-3298139D02*
G01*
X5288991Y-3303168D01*
X5288991Y-3382162D01*
X5294020Y-3387140D01*
X5318201Y-3387140D01*
X5318201Y-3349142D01*
X5351221Y-3349142D01*
X5351221Y-3387140D01*
X5373979Y-3387140D01*
X5379008Y-3382162D01*
X5379008Y-3303168D01*
X5373979Y-3298139D01*
G37*
G36*
X5484520Y-3457143D02*
G01*
X5479491Y-3462172D01*
X5479491Y-3542182D01*
X5484520Y-3547160D01*
X5564530Y-3547160D01*
X5569508Y-3542182D01*
X5569508Y-3462172D01*
X5564530Y-3457143D01*
X5541721Y-3457143D01*
X5541721Y-3494176D01*
X5508701Y-3494176D01*
X5508701Y-3457143D01*
G37*
G36*
X5484520Y-3298139D02*
G01*
X5479491Y-3303168D01*
X5479491Y-3382162D01*
X5484520Y-3387140D01*
X5508701Y-3387140D01*
X5508701Y-3349142D01*
X5541721Y-3349142D01*
X5541721Y-3387140D01*
X5564530Y-3387140D01*
X5569508Y-3382162D01*
X5569508Y-3303168D01*
X5564530Y-3298139D01*
G37*
G36*
X3316122Y-2469591D02*
G01*
X3311093Y-2474620D01*
X3311093Y-2497378D01*
X3348075Y-2497378D01*
X3348075Y-2530398D01*
X3311093Y-2530398D01*
X3311093Y-2554579D01*
X3316122Y-2559608D01*
X3396081Y-2559608D01*
X3401110Y-2554579D01*
X3401110Y-2474620D01*
X3396081Y-2469591D01*
G37*
G36*
X3157118Y-2469591D02*
G01*
X3152089Y-2474620D01*
X3152089Y-2554579D01*
X3157118Y-2559608D01*
X3236112Y-2559608D01*
X3241090Y-2554579D01*
X3241090Y-2530398D01*
X3203092Y-2530398D01*
X3203092Y-2497378D01*
X3241090Y-2497378D01*
X3241090Y-2474620D01*
X3236112Y-2469591D01*
G37*
D10*
G01*
X3573475Y-2113279D03*
G01*
X3573475Y-2311400D03*
G01*
X3573348Y-2512060D03*
G01*
X3573348Y-2712720D03*
G01*
X3573348Y-2913379D03*
G01*
X3573348Y-3111500D03*
G01*
X3573348Y-3312160D03*
G01*
X3573348Y-3512820D03*
G01*
X5113477Y-2113279D03*
G01*
X5113477Y-2311400D03*
G01*
X5113477Y-2512060D03*
G01*
X5113477Y-2712720D03*
G01*
X5113477Y-2913379D03*
G01*
X5113477Y-3111500D03*
G01*
X5113477Y-3312160D03*
G01*
X5113477Y-3512820D03*
M02*
