G04 Layer: BottomSilkscreenLayer*
G04 EasyEDA v6.5.15, 2022-09-09 10:58:47*
G04 19121817273c46a5bb41958087e4de9f,cdadd2d4b4cb47a19753abecc85b3b56,10*
G04 Gerber Generator version 0.2*
G04 Scale: 100 percent, Rotated: No, Reflected: No *
G04 Dimensions in millimeters *
G04 leading zeros omitted , absolute positions ,4 integer and 5 decimal *
%FSLAX45Y45*%
%MOMM*%

%ADD10C,0.2032*%

%LPD*%
D10*
X5105400Y-1445953D02*
G01*
X5105400Y-1639915D01*
X5105400Y-1445953D02*
G01*
X5022273Y-1445953D01*
X4994564Y-1455188D01*
X4985326Y-1464424D01*
X4976091Y-1482897D01*
X4976091Y-1501371D01*
X4985326Y-1519844D01*
X4994564Y-1529079D01*
X5022273Y-1538315D01*
X5105400Y-1538315D01*
X5040744Y-1538315D02*
G01*
X4976091Y-1639915D01*
X4868948Y-1510606D02*
G01*
X4887422Y-1519844D01*
X4905895Y-1538315D01*
X4915131Y-1566024D01*
X4915131Y-1584497D01*
X4905895Y-1612206D01*
X4887422Y-1630679D01*
X4868948Y-1639915D01*
X4841240Y-1639915D01*
X4822766Y-1630679D01*
X4804295Y-1612206D01*
X4795057Y-1584497D01*
X4795057Y-1566024D01*
X4804295Y-1538315D01*
X4822766Y-1519844D01*
X4841240Y-1510606D01*
X4868948Y-1510606D01*
X4687915Y-1510606D02*
G01*
X4706388Y-1519844D01*
X4724862Y-1538315D01*
X4734097Y-1566024D01*
X4734097Y-1584497D01*
X4724862Y-1612206D01*
X4706388Y-1630679D01*
X4687915Y-1639915D01*
X4660206Y-1639915D01*
X4641735Y-1630679D01*
X4623262Y-1612206D01*
X4614024Y-1584497D01*
X4614024Y-1566024D01*
X4623262Y-1538315D01*
X4641735Y-1519844D01*
X4660206Y-1510606D01*
X4687915Y-1510606D01*
X4553064Y-1510606D02*
G01*
X4553064Y-1639915D01*
X4553064Y-1547553D02*
G01*
X4525355Y-1519844D01*
X4506884Y-1510606D01*
X4479175Y-1510606D01*
X4460702Y-1519844D01*
X4451464Y-1547553D01*
X4451464Y-1639915D01*
X4451464Y-1547553D02*
G01*
X4423755Y-1519844D01*
X4405284Y-1510606D01*
X4377575Y-1510606D01*
X4359102Y-1519844D01*
X4349864Y-1547553D01*
X4349864Y-1639915D01*
X4288904Y-1445953D02*
G01*
X4288904Y-1639915D01*
X4288904Y-1538315D02*
G01*
X4270433Y-1519844D01*
X4251959Y-1510606D01*
X4224251Y-1510606D01*
X4205777Y-1519844D01*
X4187304Y-1538315D01*
X4178068Y-1566024D01*
X4178068Y-1584497D01*
X4187304Y-1612206D01*
X4205777Y-1630679D01*
X4224251Y-1639915D01*
X4251959Y-1639915D01*
X4270433Y-1630679D01*
X4288904Y-1612206D01*
X4006273Y-1510606D02*
G01*
X4006273Y-1639915D01*
X4006273Y-1538315D02*
G01*
X4024744Y-1519844D01*
X4043217Y-1510606D01*
X4070926Y-1510606D01*
X4089400Y-1519844D01*
X4107873Y-1538315D01*
X4117108Y-1566024D01*
X4117108Y-1584497D01*
X4107873Y-1612206D01*
X4089400Y-1630679D01*
X4070926Y-1639915D01*
X4043217Y-1639915D01*
X4024744Y-1630679D01*
X4006273Y-1612206D01*
X3803073Y-1445953D02*
G01*
X3803073Y-1639915D01*
X3803073Y-1445953D02*
G01*
X3683000Y-1445953D01*
X3803073Y-1538315D02*
G01*
X3729182Y-1538315D01*
X3803073Y-1639915D02*
G01*
X3683000Y-1639915D01*
X3492731Y-1473662D02*
G01*
X3511204Y-1455188D01*
X3538913Y-1445953D01*
X3575857Y-1445953D01*
X3603566Y-1455188D01*
X3622040Y-1473662D01*
X3622040Y-1492135D01*
X3612804Y-1510606D01*
X3603566Y-1519844D01*
X3585095Y-1529079D01*
X3529675Y-1547553D01*
X3511204Y-1556788D01*
X3501966Y-1566024D01*
X3492731Y-1584497D01*
X3492731Y-1612206D01*
X3511204Y-1630679D01*
X3538913Y-1639915D01*
X3575857Y-1639915D01*
X3603566Y-1630679D01*
X3622040Y-1612206D01*
X3431771Y-1445953D02*
G01*
X3431771Y-1639915D01*
X3431771Y-1445953D02*
G01*
X3348644Y-1445953D01*
X3320935Y-1455188D01*
X3311697Y-1464424D01*
X3302462Y-1482897D01*
X3302462Y-1510606D01*
X3311697Y-1529079D01*
X3320935Y-1538315D01*
X3348644Y-1547553D01*
X3431771Y-1547553D01*
X3241502Y-1445953D02*
G01*
X3241502Y-1639915D01*
X3112193Y-1445953D02*
G01*
X3112193Y-1639915D01*
X3241502Y-1538315D02*
G01*
X3112193Y-1538315D01*
X3005051Y-1510606D02*
G01*
X3023524Y-1519844D01*
X3041995Y-1538315D01*
X3051233Y-1566024D01*
X3051233Y-1584497D01*
X3041995Y-1612206D01*
X3023524Y-1630679D01*
X3005051Y-1639915D01*
X2977342Y-1639915D01*
X2958868Y-1630679D01*
X2940395Y-1612206D01*
X2931159Y-1584497D01*
X2931159Y-1566024D01*
X2940395Y-1538315D01*
X2958868Y-1519844D01*
X2977342Y-1510606D01*
X3005051Y-1510606D01*
X2870200Y-1510606D02*
G01*
X2870200Y-1639915D01*
X2870200Y-1547553D02*
G01*
X2842491Y-1519844D01*
X2824017Y-1510606D01*
X2796308Y-1510606D01*
X2777835Y-1519844D01*
X2768600Y-1547553D01*
X2768600Y-1639915D01*
X2768600Y-1547553D02*
G01*
X2740891Y-1519844D01*
X2722417Y-1510606D01*
X2694708Y-1510606D01*
X2676235Y-1519844D01*
X2667000Y-1547553D01*
X2667000Y-1639915D01*
X2606040Y-1566024D02*
G01*
X2495204Y-1566024D01*
X2495204Y-1547553D01*
X2504440Y-1529079D01*
X2513675Y-1519844D01*
X2532148Y-1510606D01*
X2559857Y-1510606D01*
X2578331Y-1519844D01*
X2596804Y-1538315D01*
X2606040Y-1566024D01*
X2606040Y-1584497D01*
X2596804Y-1612206D01*
X2578331Y-1630679D01*
X2559857Y-1639915D01*
X2532148Y-1639915D01*
X2513675Y-1630679D01*
X2495204Y-1612206D01*
X5105400Y-1815406D02*
G01*
X5068455Y-1944715D01*
X5031508Y-1815406D02*
G01*
X5068455Y-1944715D01*
X5031508Y-1815406D02*
G01*
X4994564Y-1944715D01*
X4957617Y-1815406D02*
G01*
X4994564Y-1944715D01*
X4896657Y-1750753D02*
G01*
X4896657Y-1944715D01*
X4896657Y-1843115D02*
G01*
X4878184Y-1824644D01*
X4859713Y-1815406D01*
X4832004Y-1815406D01*
X4813531Y-1824644D01*
X4795057Y-1843115D01*
X4785822Y-1870824D01*
X4785822Y-1889297D01*
X4795057Y-1917006D01*
X4813531Y-1935479D01*
X4832004Y-1944715D01*
X4859713Y-1944715D01*
X4878184Y-1935479D01*
X4896657Y-1917006D01*
X4724862Y-1815406D02*
G01*
X4724862Y-1907771D01*
X4715624Y-1935479D01*
X4697153Y-1944715D01*
X4669444Y-1944715D01*
X4650971Y-1935479D01*
X4623262Y-1907771D01*
X4623262Y-1815406D02*
G01*
X4623262Y-1944715D01*
X4562302Y-1815406D02*
G01*
X4562302Y-1944715D01*
X4562302Y-1870824D02*
G01*
X4553064Y-1843115D01*
X4534593Y-1824644D01*
X4516120Y-1815406D01*
X4488411Y-1815406D01*
X4316615Y-1815406D02*
G01*
X4316615Y-1963188D01*
X4325851Y-1990897D01*
X4335086Y-2000135D01*
X4353559Y-2009371D01*
X4381268Y-2009371D01*
X4399742Y-2000135D01*
X4316615Y-1843115D02*
G01*
X4335086Y-1824644D01*
X4353559Y-1815406D01*
X4381268Y-1815406D01*
X4399742Y-1824644D01*
X4418215Y-1843115D01*
X4427451Y-1870824D01*
X4427451Y-1889297D01*
X4418215Y-1917006D01*
X4399742Y-1935479D01*
X4381268Y-1944715D01*
X4353559Y-1944715D01*
X4335086Y-1935479D01*
X4316615Y-1917006D01*
X4255655Y-1870824D02*
G01*
X4144817Y-1870824D01*
X4144817Y-1852353D01*
X4154055Y-1833879D01*
X4163291Y-1824644D01*
X4181764Y-1815406D01*
X4209473Y-1815406D01*
X4227944Y-1824644D01*
X4246417Y-1843115D01*
X4255655Y-1870824D01*
X4255655Y-1889297D01*
X4246417Y-1917006D01*
X4227944Y-1935479D01*
X4209473Y-1944715D01*
X4181764Y-1944715D01*
X4163291Y-1935479D01*
X4144817Y-1917006D01*
X4083857Y-1815406D02*
G01*
X4083857Y-1944715D01*
X4083857Y-1870824D02*
G01*
X4074622Y-1843115D01*
X4056148Y-1824644D01*
X4037675Y-1815406D01*
X4009966Y-1815406D01*
X3847406Y-1843115D02*
G01*
X3856644Y-1824644D01*
X3884353Y-1815406D01*
X3912062Y-1815406D01*
X3939771Y-1824644D01*
X3949006Y-1843115D01*
X3939771Y-1861588D01*
X3921297Y-1870824D01*
X3875115Y-1880062D01*
X3856644Y-1889297D01*
X3847406Y-1907771D01*
X3847406Y-1917006D01*
X3856644Y-1935479D01*
X3884353Y-1944715D01*
X3912062Y-1944715D01*
X3939771Y-1935479D01*
X3949006Y-1917006D01*
X5105400Y-2120206D02*
G01*
X5049982Y-2249515D01*
X4994564Y-2120206D02*
G01*
X5049982Y-2249515D01*
X4791364Y-2092497D02*
G01*
X4772891Y-2083262D01*
X4745182Y-2055553D01*
X4745182Y-2249515D01*
X4674984Y-2203335D02*
G01*
X4684222Y-2212571D01*
X4674984Y-2221806D01*
X4665748Y-2212571D01*
X4674984Y-2203335D01*
X4549371Y-2055553D02*
G01*
X4577079Y-2064788D01*
X4595553Y-2092497D01*
X4604788Y-2138679D01*
X4604788Y-2166388D01*
X4595553Y-2212571D01*
X4577079Y-2240279D01*
X4549371Y-2249515D01*
X4530897Y-2249515D01*
X4503188Y-2240279D01*
X4484715Y-2212571D01*
X4475479Y-2166388D01*
X4475479Y-2138679D01*
X4484715Y-2092497D01*
X4503188Y-2064788D01*
X4530897Y-2055553D01*
X4549371Y-2055553D01*
M02*
