G04 Layer: InnerLayer1*
G04 EasyEDA v6.5.15, 2022-09-09 10:58:47*
G04 19121817273c46a5bb41958087e4de9f,cdadd2d4b4cb47a19753abecc85b3b56,10*
G04 Gerber Generator version 0.2*
G04 Scale: 100 percent, Rotated: No, Reflected: No *
G04 Dimensions in millimeters *
G04 leading zeros omitted , absolute positions ,4 integer and 5 decimal *
%FSLAX45Y45*%
%MOMM*%

%ADD10C,1.1938*%
%ADD11O,1.9999959999999999X0.9999979999999999*%
%ADD12C,1.5240*%
%ADD13C,1.7000*%
%ADD14R,1.3005X1.3005*%
%ADD15C,1.7501*%
%ADD16R,1.7501X1.7501*%
%ADD17C,0.6096*%
%ADD18C,0.0108*%

%LPD*%
G36*
X1814068Y-4292092D02*
G01*
X1810156Y-4291330D01*
X1806905Y-4289094D01*
X1804670Y-4285843D01*
X1803907Y-4281932D01*
X1803907Y-1280668D01*
X1804670Y-1276756D01*
X1806905Y-1273505D01*
X1810156Y-1271270D01*
X1814068Y-1270508D01*
X3520440Y-1270508D01*
X3524351Y-1271270D01*
X3527602Y-1273505D01*
X3529837Y-1276756D01*
X3530600Y-1280668D01*
X3530600Y-2030984D01*
X3531615Y-2032000D01*
X5155184Y-2032000D01*
X5156200Y-2030984D01*
X5156200Y-1280668D01*
X5156962Y-1276756D01*
X5159197Y-1273505D01*
X5162448Y-1271270D01*
X5166360Y-1270508D01*
X5780532Y-1270508D01*
X5784443Y-1271270D01*
X5787694Y-1273505D01*
X5789930Y-1276756D01*
X5790692Y-1280668D01*
X5790692Y-4281932D01*
X5789930Y-4285843D01*
X5787694Y-4289094D01*
X5784443Y-4291330D01*
X5780532Y-4292092D01*
G37*

%LPC*%
G36*
X4470654Y-4233367D02*
G01*
X4482846Y-4232503D01*
X4494784Y-4229912D01*
X4506214Y-4225645D01*
X4516932Y-4219803D01*
X4526686Y-4212488D01*
X4535322Y-4203852D01*
X4542637Y-4194098D01*
X4548479Y-4183379D01*
X4552746Y-4171950D01*
X4555388Y-4160012D01*
X4556252Y-4147820D01*
X4555388Y-4135628D01*
X4552746Y-4123690D01*
X4548479Y-4112260D01*
X4542637Y-4101541D01*
X4535322Y-4091787D01*
X4526686Y-4083151D01*
X4516932Y-4075836D01*
X4506214Y-4069994D01*
X4494784Y-4065727D01*
X4482846Y-4063136D01*
X4470654Y-4062272D01*
X4458462Y-4063136D01*
X4446574Y-4065727D01*
X4435094Y-4069994D01*
X4424375Y-4075836D01*
X4414621Y-4083151D01*
X4405985Y-4091787D01*
X4398670Y-4101541D01*
X4392828Y-4112260D01*
X4388561Y-4123690D01*
X4385970Y-4135628D01*
X4385106Y-4147820D01*
X4385970Y-4160012D01*
X4388561Y-4171950D01*
X4392828Y-4183379D01*
X4398670Y-4194098D01*
X4405985Y-4203852D01*
X4414621Y-4212488D01*
X4424375Y-4219803D01*
X4435094Y-4225645D01*
X4446574Y-4229912D01*
X4458462Y-4232503D01*
G37*
G36*
X4252874Y-4225290D02*
G01*
X4262932Y-4219803D01*
X4272686Y-4212488D01*
X4281322Y-4203852D01*
X4288637Y-4194098D01*
X4294174Y-4184040D01*
X4252874Y-4184040D01*
G37*
G36*
X4180484Y-4225290D02*
G01*
X4180484Y-4184040D01*
X4139184Y-4184040D01*
X4144670Y-4194098D01*
X4151985Y-4203852D01*
X4160621Y-4212488D01*
X4170375Y-4219803D01*
G37*
G36*
X4252874Y-4111650D02*
G01*
X4294174Y-4111650D01*
X4288637Y-4101541D01*
X4281322Y-4091787D01*
X4272686Y-4083151D01*
X4262932Y-4075836D01*
X4252874Y-4070350D01*
G37*
G36*
X4139184Y-4111650D02*
G01*
X4180484Y-4111650D01*
X4180484Y-4070350D01*
X4170375Y-4075836D01*
X4160621Y-4083151D01*
X4151985Y-4091787D01*
X4144670Y-4101541D01*
G37*
G36*
X3276142Y-4038854D02*
G01*
X3289757Y-4038854D01*
X3303270Y-4037025D01*
X3316427Y-4033418D01*
X3328974Y-4028135D01*
X3340709Y-4021175D01*
X3351428Y-4012692D01*
X3360928Y-4002887D01*
X3369005Y-3991914D01*
X3375558Y-3979976D01*
X3380435Y-3967226D01*
X3383635Y-3953967D01*
X3384956Y-3940403D01*
X3384499Y-3926789D01*
X3382264Y-3913327D01*
X3378200Y-3900322D01*
X3372459Y-3887927D01*
X3365144Y-3876446D01*
X3356356Y-3866032D01*
X3346196Y-3856888D01*
X3334969Y-3849166D01*
X3322828Y-3843020D01*
X3309924Y-3838549D01*
X3296564Y-3835806D01*
X3282950Y-3834892D01*
X3269335Y-3835806D01*
X3255975Y-3838549D01*
X3243072Y-3843020D01*
X3230930Y-3849166D01*
X3219704Y-3856888D01*
X3209544Y-3866032D01*
X3200755Y-3876446D01*
X3193440Y-3887927D01*
X3187700Y-3900322D01*
X3183636Y-3913327D01*
X3181400Y-3926789D01*
X3180943Y-3940403D01*
X3182264Y-3953967D01*
X3185464Y-3967226D01*
X3190341Y-3979976D01*
X3196894Y-3991914D01*
X3204972Y-4002887D01*
X3214471Y-4012692D01*
X3225190Y-4021175D01*
X3236925Y-4028135D01*
X3249472Y-4033418D01*
X3262629Y-4037025D01*
G37*
G36*
X2876092Y-4038854D02*
G01*
X2889707Y-4038854D01*
X2903220Y-4037025D01*
X2916377Y-4033418D01*
X2928924Y-4028135D01*
X2940659Y-4021175D01*
X2951378Y-4012692D01*
X2960878Y-4002887D01*
X2968955Y-3991914D01*
X2975508Y-3979976D01*
X2980385Y-3967226D01*
X2983585Y-3953967D01*
X2984906Y-3940403D01*
X2984449Y-3926789D01*
X2982214Y-3913327D01*
X2978150Y-3900322D01*
X2972409Y-3887927D01*
X2965094Y-3876446D01*
X2956306Y-3866032D01*
X2946146Y-3856888D01*
X2934919Y-3849166D01*
X2922778Y-3843020D01*
X2909874Y-3838549D01*
X2896514Y-3835806D01*
X2882900Y-3834892D01*
X2869285Y-3835806D01*
X2855925Y-3838549D01*
X2843022Y-3843020D01*
X2830880Y-3849166D01*
X2819654Y-3856888D01*
X2809494Y-3866032D01*
X2800705Y-3876446D01*
X2793390Y-3887927D01*
X2787650Y-3900322D01*
X2783586Y-3913327D01*
X2781350Y-3926789D01*
X2780893Y-3940403D01*
X2782214Y-3953967D01*
X2785414Y-3967226D01*
X2790291Y-3979976D01*
X2796844Y-3991914D01*
X2804922Y-4002887D01*
X2814421Y-4012692D01*
X2825140Y-4021175D01*
X2836875Y-4028135D01*
X2849422Y-4033418D01*
X2862580Y-4037025D01*
G37*
G36*
X2488742Y-4038854D02*
G01*
X2502357Y-4038854D01*
X2515870Y-4037025D01*
X2529027Y-4033418D01*
X2541574Y-4028135D01*
X2553309Y-4021175D01*
X2564028Y-4012692D01*
X2573528Y-4002887D01*
X2581605Y-3991914D01*
X2588158Y-3979976D01*
X2593035Y-3967226D01*
X2596235Y-3953967D01*
X2597556Y-3940403D01*
X2597099Y-3926789D01*
X2594864Y-3913327D01*
X2590800Y-3900322D01*
X2585059Y-3887927D01*
X2577744Y-3876446D01*
X2568956Y-3866032D01*
X2558796Y-3856888D01*
X2547569Y-3849166D01*
X2535428Y-3843020D01*
X2522524Y-3838549D01*
X2509164Y-3835806D01*
X2495550Y-3834892D01*
X2481935Y-3835806D01*
X2468575Y-3838549D01*
X2455672Y-3843020D01*
X2443530Y-3849166D01*
X2432304Y-3856888D01*
X2422144Y-3866032D01*
X2413355Y-3876446D01*
X2406040Y-3887927D01*
X2400300Y-3900322D01*
X2396236Y-3913327D01*
X2394000Y-3926789D01*
X2393543Y-3940403D01*
X2394864Y-3953967D01*
X2398064Y-3967226D01*
X2402941Y-3979976D01*
X2409494Y-3991914D01*
X2417572Y-4002887D01*
X2427071Y-4012692D01*
X2437790Y-4021175D01*
X2449525Y-4028135D01*
X2462072Y-4033418D01*
X2475230Y-4037025D01*
G37*
G36*
X2088692Y-4038854D02*
G01*
X2102307Y-4038854D01*
X2115820Y-4037025D01*
X2128977Y-4033418D01*
X2141524Y-4028135D01*
X2153259Y-4021175D01*
X2163978Y-4012692D01*
X2173478Y-4002887D01*
X2181555Y-3991914D01*
X2188108Y-3979976D01*
X2192985Y-3967226D01*
X2196185Y-3953967D01*
X2197506Y-3940403D01*
X2197049Y-3926789D01*
X2194814Y-3913327D01*
X2190750Y-3900322D01*
X2185009Y-3887927D01*
X2177694Y-3876446D01*
X2168906Y-3866032D01*
X2158746Y-3856888D01*
X2147519Y-3849166D01*
X2135378Y-3843020D01*
X2122474Y-3838549D01*
X2109114Y-3835806D01*
X2095500Y-3834892D01*
X2081885Y-3835806D01*
X2068525Y-3838549D01*
X2055622Y-3843020D01*
X2043480Y-3849166D01*
X2032254Y-3856888D01*
X2022093Y-3866032D01*
X2013305Y-3876446D01*
X2005990Y-3887927D01*
X2000250Y-3900322D01*
X1996186Y-3913327D01*
X1993950Y-3926789D01*
X1993493Y-3940403D01*
X1994814Y-3953967D01*
X1998014Y-3967226D01*
X2002891Y-3979976D01*
X2009444Y-3991914D01*
X2017522Y-4002887D01*
X2027021Y-4012692D01*
X2037740Y-4021175D01*
X2049475Y-4028135D01*
X2062022Y-4033418D01*
X2075180Y-4037025D01*
G37*
G36*
X4470654Y-3953967D02*
G01*
X4482846Y-3953103D01*
X4494784Y-3950512D01*
X4506214Y-3946245D01*
X4516932Y-3940403D01*
X4526686Y-3933088D01*
X4535322Y-3924452D01*
X4542637Y-3914698D01*
X4548479Y-3903979D01*
X4552746Y-3892550D01*
X4555388Y-3880612D01*
X4556252Y-3868420D01*
X4555388Y-3856228D01*
X4552746Y-3844290D01*
X4548479Y-3832860D01*
X4542637Y-3822141D01*
X4535322Y-3812387D01*
X4526686Y-3803751D01*
X4516932Y-3796436D01*
X4506214Y-3790594D01*
X4494784Y-3786327D01*
X4482846Y-3783736D01*
X4470654Y-3782872D01*
X4458462Y-3783736D01*
X4446574Y-3786327D01*
X4435094Y-3790594D01*
X4424375Y-3796436D01*
X4414621Y-3803751D01*
X4405985Y-3812387D01*
X4398670Y-3822141D01*
X4392828Y-3832860D01*
X4388561Y-3844290D01*
X4385970Y-3856228D01*
X4385106Y-3868420D01*
X4385970Y-3880612D01*
X4388561Y-3892550D01*
X4392828Y-3903979D01*
X4398670Y-3914698D01*
X4405985Y-3924452D01*
X4414621Y-3933088D01*
X4424375Y-3940403D01*
X4435094Y-3946245D01*
X4446574Y-3950512D01*
X4458462Y-3953103D01*
G37*
G36*
X4252874Y-3945890D02*
G01*
X4262932Y-3940403D01*
X4272686Y-3933088D01*
X4281322Y-3924452D01*
X4288637Y-3914698D01*
X4294174Y-3904640D01*
X4252874Y-3904640D01*
G37*
G36*
X4180484Y-3945890D02*
G01*
X4180484Y-3904640D01*
X4139184Y-3904640D01*
X4144670Y-3914698D01*
X4151985Y-3924452D01*
X4160621Y-3933088D01*
X4170375Y-3940403D01*
G37*
G36*
X4139184Y-3832250D02*
G01*
X4180484Y-3832250D01*
X4180484Y-3790950D01*
X4170375Y-3796436D01*
X4160621Y-3803751D01*
X4151985Y-3812387D01*
X4144670Y-3822141D01*
G37*
G36*
X4252874Y-3832250D02*
G01*
X4294174Y-3832250D01*
X4288637Y-3822141D01*
X4281322Y-3812387D01*
X4272686Y-3803751D01*
X4262932Y-3796436D01*
X4252874Y-3790950D01*
G37*
G36*
X2876092Y-3438906D02*
G01*
X2889707Y-3438906D01*
X2903220Y-3437077D01*
X2916377Y-3433470D01*
X2928924Y-3428187D01*
X2940659Y-3421227D01*
X2951378Y-3412744D01*
X2960878Y-3402939D01*
X2968955Y-3391966D01*
X2975508Y-3380028D01*
X2980385Y-3367278D01*
X2983585Y-3354019D01*
X2984906Y-3340455D01*
X2984449Y-3326841D01*
X2982214Y-3313379D01*
X2978150Y-3300374D01*
X2972409Y-3287979D01*
X2965094Y-3276498D01*
X2956306Y-3266084D01*
X2946146Y-3256940D01*
X2934919Y-3249218D01*
X2922778Y-3243072D01*
X2909874Y-3238601D01*
X2896514Y-3235858D01*
X2882900Y-3234944D01*
X2869285Y-3235858D01*
X2855925Y-3238601D01*
X2843022Y-3243072D01*
X2830880Y-3249218D01*
X2819654Y-3256940D01*
X2809494Y-3266084D01*
X2800705Y-3276498D01*
X2793390Y-3287979D01*
X2787650Y-3300374D01*
X2783586Y-3313379D01*
X2781350Y-3326841D01*
X2780893Y-3340455D01*
X2782214Y-3354019D01*
X2785414Y-3367278D01*
X2790291Y-3380028D01*
X2796844Y-3391966D01*
X2804922Y-3402939D01*
X2814421Y-3412744D01*
X2825140Y-3421227D01*
X2836875Y-3428187D01*
X2849422Y-3433470D01*
X2862580Y-3437077D01*
G37*
G36*
X3276142Y-3438906D02*
G01*
X3289757Y-3438906D01*
X3303270Y-3437077D01*
X3316427Y-3433470D01*
X3328974Y-3428187D01*
X3340709Y-3421227D01*
X3351428Y-3412744D01*
X3360928Y-3402939D01*
X3369005Y-3391966D01*
X3375558Y-3380028D01*
X3380435Y-3367278D01*
X3383635Y-3354019D01*
X3384956Y-3340455D01*
X3384499Y-3326841D01*
X3382264Y-3313379D01*
X3378200Y-3300374D01*
X3372459Y-3287979D01*
X3365144Y-3276498D01*
X3356356Y-3266084D01*
X3346196Y-3256940D01*
X3334969Y-3249218D01*
X3322828Y-3243072D01*
X3309924Y-3238601D01*
X3296564Y-3235858D01*
X3282950Y-3234944D01*
X3269335Y-3235858D01*
X3255975Y-3238601D01*
X3243072Y-3243072D01*
X3230930Y-3249218D01*
X3219704Y-3256940D01*
X3209544Y-3266084D01*
X3200755Y-3276498D01*
X3193440Y-3287979D01*
X3187700Y-3300374D01*
X3183636Y-3313379D01*
X3181400Y-3326841D01*
X3180943Y-3340455D01*
X3182264Y-3354019D01*
X3185464Y-3367278D01*
X3190341Y-3380028D01*
X3196894Y-3391966D01*
X3204972Y-3402939D01*
X3214471Y-3412744D01*
X3225190Y-3421227D01*
X3236925Y-3428187D01*
X3249472Y-3433470D01*
X3262629Y-3437077D01*
G37*
G36*
X2488742Y-3438906D02*
G01*
X2502357Y-3438906D01*
X2515870Y-3437077D01*
X2529027Y-3433470D01*
X2541574Y-3428187D01*
X2553309Y-3421227D01*
X2564028Y-3412744D01*
X2573528Y-3402939D01*
X2581605Y-3391966D01*
X2588158Y-3380028D01*
X2593035Y-3367278D01*
X2596235Y-3354019D01*
X2597556Y-3340455D01*
X2597099Y-3326841D01*
X2594864Y-3313379D01*
X2590800Y-3300374D01*
X2585059Y-3287979D01*
X2577744Y-3276498D01*
X2568956Y-3266084D01*
X2558796Y-3256940D01*
X2547569Y-3249218D01*
X2535428Y-3243072D01*
X2522524Y-3238601D01*
X2509164Y-3235858D01*
X2495550Y-3234944D01*
X2481935Y-3235858D01*
X2468575Y-3238601D01*
X2455672Y-3243072D01*
X2443530Y-3249218D01*
X2432304Y-3256940D01*
X2422144Y-3266084D01*
X2413355Y-3276498D01*
X2406040Y-3287979D01*
X2400300Y-3300374D01*
X2396236Y-3313379D01*
X2394000Y-3326841D01*
X2393543Y-3340455D01*
X2394864Y-3354019D01*
X2398064Y-3367278D01*
X2402941Y-3380028D01*
X2409494Y-3391966D01*
X2417572Y-3402939D01*
X2427071Y-3412744D01*
X2437790Y-3421227D01*
X2449525Y-3428187D01*
X2462072Y-3433470D01*
X2475230Y-3437077D01*
G37*
G36*
X2088692Y-3438906D02*
G01*
X2102307Y-3438906D01*
X2115820Y-3437077D01*
X2128977Y-3433470D01*
X2141524Y-3428187D01*
X2153259Y-3421227D01*
X2163978Y-3412744D01*
X2173478Y-3402939D01*
X2181555Y-3391966D01*
X2188108Y-3380028D01*
X2192985Y-3367278D01*
X2196185Y-3354019D01*
X2197506Y-3340455D01*
X2197049Y-3326841D01*
X2194814Y-3313379D01*
X2190750Y-3300374D01*
X2185009Y-3287979D01*
X2177694Y-3276498D01*
X2168906Y-3266084D01*
X2158746Y-3256940D01*
X2147519Y-3249218D01*
X2135378Y-3243072D01*
X2122474Y-3238601D01*
X2109114Y-3235858D01*
X2095500Y-3234944D01*
X2081885Y-3235858D01*
X2068525Y-3238601D01*
X2055622Y-3243072D01*
X2043480Y-3249218D01*
X2032254Y-3256940D01*
X2022093Y-3266084D01*
X2013305Y-3276498D01*
X2005990Y-3287979D01*
X2000250Y-3300374D01*
X1996186Y-3313379D01*
X1993950Y-3326841D01*
X1993493Y-3340455D01*
X1994814Y-3354019D01*
X1998014Y-3367278D01*
X2002891Y-3380028D01*
X2009444Y-3391966D01*
X2017522Y-3402939D01*
X2027021Y-3412744D01*
X2037740Y-3421227D01*
X2049475Y-3428187D01*
X2062022Y-3433470D01*
X2075180Y-3437077D01*
G37*
G36*
X3087268Y-3111195D02*
G01*
X3186531Y-3111195D01*
X3198215Y-3110331D01*
X3209290Y-3107791D01*
X3219805Y-3103676D01*
X3229660Y-3097987D01*
X3238500Y-3090926D01*
X3246221Y-3082594D01*
X3252622Y-3073247D01*
X3257550Y-3063036D01*
X3260852Y-3052165D01*
X3262579Y-3040989D01*
X3262579Y-3029610D01*
X3260852Y-3018434D01*
X3257550Y-3007563D01*
X3252622Y-2997352D01*
X3246221Y-2988005D01*
X3237534Y-2978759D01*
X3235502Y-2975559D01*
X3234791Y-2971800D01*
X3235502Y-2968040D01*
X3237534Y-2964840D01*
X3246221Y-2955594D01*
X3252622Y-2946247D01*
X3257550Y-2936036D01*
X3260852Y-2925165D01*
X3262579Y-2913989D01*
X3262579Y-2902610D01*
X3260852Y-2891434D01*
X3257550Y-2880563D01*
X3252622Y-2870352D01*
X3246221Y-2861005D01*
X3237534Y-2851759D01*
X3235502Y-2848559D01*
X3234791Y-2844800D01*
X3235502Y-2841040D01*
X3237534Y-2837840D01*
X3246221Y-2828594D01*
X3252622Y-2819247D01*
X3257550Y-2809036D01*
X3260852Y-2798165D01*
X3262579Y-2786989D01*
X3262579Y-2775610D01*
X3260852Y-2764434D01*
X3257550Y-2753563D01*
X3252622Y-2743352D01*
X3246221Y-2734005D01*
X3238500Y-2725674D01*
X3229660Y-2718612D01*
X3219805Y-2712923D01*
X3209290Y-2708808D01*
X3198215Y-2706268D01*
X3186531Y-2705404D01*
X3087268Y-2705404D01*
X3075584Y-2706268D01*
X3064510Y-2708808D01*
X3053994Y-2712923D01*
X3044139Y-2718612D01*
X3035300Y-2725674D01*
X3027578Y-2734005D01*
X3021177Y-2743352D01*
X3016250Y-2753563D01*
X3012948Y-2764434D01*
X3011220Y-2775610D01*
X3011220Y-2786989D01*
X3012948Y-2798165D01*
X3016250Y-2809036D01*
X3021177Y-2819247D01*
X3027578Y-2828594D01*
X3036265Y-2837840D01*
X3038297Y-2841040D01*
X3039008Y-2844800D01*
X3038297Y-2848559D01*
X3036265Y-2851759D01*
X3027578Y-2861005D01*
X3021177Y-2870352D01*
X3016250Y-2880563D01*
X3012948Y-2891434D01*
X3011220Y-2902610D01*
X3011220Y-2913989D01*
X3012948Y-2925165D01*
X3016250Y-2936036D01*
X3021177Y-2946247D01*
X3027578Y-2955594D01*
X3036265Y-2964840D01*
X3038297Y-2968040D01*
X3039008Y-2971800D01*
X3038297Y-2975559D01*
X3036265Y-2978759D01*
X3027578Y-2988005D01*
X3021177Y-2997352D01*
X3016250Y-3007563D01*
X3012948Y-3018434D01*
X3011220Y-3029610D01*
X3011220Y-3040989D01*
X3012948Y-3052165D01*
X3016250Y-3063036D01*
X3021177Y-3073247D01*
X3027578Y-3082594D01*
X3035300Y-3090926D01*
X3044139Y-3097987D01*
X3053994Y-3103676D01*
X3064510Y-3107791D01*
X3075584Y-3110331D01*
G37*
G36*
X5504535Y-2983382D02*
G01*
X5519064Y-2983382D01*
X5533491Y-2981502D01*
X5547512Y-2977794D01*
X5560974Y-2972358D01*
X5573674Y-2965246D01*
X5585307Y-2956560D01*
X5595721Y-2946450D01*
X5604814Y-2935071D01*
X5612333Y-2922625D01*
X5618226Y-2909366D01*
X5622340Y-2895447D01*
X5624677Y-2881071D01*
X5625134Y-2866542D01*
X5623712Y-2852115D01*
X5620512Y-2837942D01*
X5615482Y-2824276D01*
X5608777Y-2811424D01*
X5600446Y-2799486D01*
X5590692Y-2788767D01*
X5579618Y-2779318D01*
X5567426Y-2771394D01*
X5554370Y-2765094D01*
X5540552Y-2760522D01*
X5526278Y-2757728D01*
X5511800Y-2756814D01*
X5497322Y-2757728D01*
X5483047Y-2760522D01*
X5469229Y-2765094D01*
X5456174Y-2771394D01*
X5443982Y-2779318D01*
X5432907Y-2788767D01*
X5423154Y-2799486D01*
X5414822Y-2811424D01*
X5408117Y-2824276D01*
X5403088Y-2837942D01*
X5399887Y-2852115D01*
X5398465Y-2866542D01*
X5398922Y-2881071D01*
X5401259Y-2895447D01*
X5405374Y-2909366D01*
X5411266Y-2922625D01*
X5418785Y-2935071D01*
X5427878Y-2946450D01*
X5438292Y-2956560D01*
X5449925Y-2965246D01*
X5462625Y-2972358D01*
X5476087Y-2977794D01*
X5490108Y-2981502D01*
G37*
G36*
X4876800Y-2969717D02*
G01*
X4886604Y-2968853D01*
X4896053Y-2966313D01*
X4904994Y-2962198D01*
X4913020Y-2956560D01*
X4919980Y-2949600D01*
X4925618Y-2941574D01*
X4929733Y-2932633D01*
X4932273Y-2923184D01*
X4933137Y-2913380D01*
X4932273Y-2903575D01*
X4929733Y-2894126D01*
X4925618Y-2885186D01*
X4919980Y-2877159D01*
X4913020Y-2870200D01*
X4904994Y-2864561D01*
X4896053Y-2860446D01*
X4886604Y-2857906D01*
X4876800Y-2857042D01*
X4866995Y-2857906D01*
X4857546Y-2860446D01*
X4848606Y-2864561D01*
X4840579Y-2870200D01*
X4833620Y-2877159D01*
X4827981Y-2885186D01*
X4823866Y-2894126D01*
X4821326Y-2903575D01*
X4820462Y-2913380D01*
X4821326Y-2923184D01*
X4823866Y-2932633D01*
X4827981Y-2941574D01*
X4833620Y-2949600D01*
X4840579Y-2956560D01*
X4848606Y-2962198D01*
X4857546Y-2966313D01*
X4866995Y-2968853D01*
G37*
G36*
X2114956Y-2963214D02*
G01*
X2129078Y-2961843D01*
X2142947Y-2958693D01*
X2156307Y-2953766D01*
X2168906Y-2947212D01*
X2180539Y-2939084D01*
X2191054Y-2929534D01*
X2200249Y-2918714D01*
X2202840Y-2914802D01*
X2205532Y-2912008D01*
X2209088Y-2910433D01*
X2212949Y-2910281D01*
X2216607Y-2911652D01*
X2219502Y-2914243D01*
X2226970Y-2924251D01*
X2236876Y-2934462D01*
X2247950Y-2943352D01*
X2260092Y-2950718D01*
X2273096Y-2956458D01*
X2286711Y-2960471D01*
X2300732Y-2962757D01*
X2314956Y-2963214D01*
X2329078Y-2961843D01*
X2342946Y-2958693D01*
X2356307Y-2953766D01*
X2368905Y-2947212D01*
X2380538Y-2939084D01*
X2391054Y-2929534D01*
X2400249Y-2918714D01*
X2402840Y-2914802D01*
X2405532Y-2912008D01*
X2409088Y-2910433D01*
X2412949Y-2910281D01*
X2416606Y-2911652D01*
X2419502Y-2914243D01*
X2426970Y-2924251D01*
X2436825Y-2934462D01*
X2447950Y-2943352D01*
X2460091Y-2950718D01*
X2473096Y-2956458D01*
X2486710Y-2960471D01*
X2500731Y-2962757D01*
X2514955Y-2963214D01*
X2529078Y-2961843D01*
X2542946Y-2958693D01*
X2556306Y-2953766D01*
X2568905Y-2947212D01*
X2580538Y-2939084D01*
X2591054Y-2929534D01*
X2600248Y-2918714D01*
X2608021Y-2906826D01*
X2614168Y-2894025D01*
X2618638Y-2880512D01*
X2621381Y-2866593D01*
X2622296Y-2852369D01*
X2621381Y-2838196D01*
X2618638Y-2824276D01*
X2614168Y-2810764D01*
X2608021Y-2797962D01*
X2600248Y-2786075D01*
X2591054Y-2775204D01*
X2588615Y-2771851D01*
X2587701Y-2767838D01*
X2588514Y-2763774D01*
X2590850Y-2760370D01*
X2594356Y-2758186D01*
X2606243Y-2753766D01*
X2618841Y-2747213D01*
X2630525Y-2739085D01*
X2641041Y-2729534D01*
X2650236Y-2718714D01*
X2658008Y-2706827D01*
X2664155Y-2694025D01*
X2668625Y-2680512D01*
X2671368Y-2666593D01*
X2672283Y-2652369D01*
X2671368Y-2638196D01*
X2668625Y-2624277D01*
X2664155Y-2610764D01*
X2658008Y-2597962D01*
X2650236Y-2586075D01*
X2641041Y-2575255D01*
X2630525Y-2565704D01*
X2618841Y-2557576D01*
X2606243Y-2550972D01*
X2592933Y-2546096D01*
X2579065Y-2542946D01*
X2564942Y-2541574D01*
X2550718Y-2542032D01*
X2536698Y-2544267D01*
X2523083Y-2548331D01*
X2510078Y-2554071D01*
X2497937Y-2561437D01*
X2486812Y-2570327D01*
X2476957Y-2580487D01*
X2468422Y-2591917D01*
X2461463Y-2604262D01*
X2456129Y-2617470D01*
X2452522Y-2631186D01*
X2450693Y-2645308D01*
X2450693Y-2659481D01*
X2452522Y-2673604D01*
X2456129Y-2687320D01*
X2461463Y-2700477D01*
X2468422Y-2712872D01*
X2476957Y-2724251D01*
X2482494Y-2730042D01*
X2484729Y-2733548D01*
X2485390Y-2737612D01*
X2484323Y-2741625D01*
X2481732Y-2744876D01*
X2478125Y-2746857D01*
X2473096Y-2748330D01*
X2460091Y-2754071D01*
X2447950Y-2761437D01*
X2436825Y-2770327D01*
X2426970Y-2780487D01*
X2419502Y-2790545D01*
X2416606Y-2793136D01*
X2412949Y-2794508D01*
X2409088Y-2794355D01*
X2405532Y-2792780D01*
X2402840Y-2789986D01*
X2400249Y-2786075D01*
X2391054Y-2775254D01*
X2380538Y-2765704D01*
X2368905Y-2757576D01*
X2356307Y-2750972D01*
X2342946Y-2746095D01*
X2329078Y-2742946D01*
X2314956Y-2741574D01*
X2300732Y-2742031D01*
X2286711Y-2744266D01*
X2273096Y-2748330D01*
X2260092Y-2754071D01*
X2247950Y-2761437D01*
X2236876Y-2770327D01*
X2226970Y-2780487D01*
X2219502Y-2790545D01*
X2216607Y-2793136D01*
X2212949Y-2794508D01*
X2209088Y-2794355D01*
X2205532Y-2792780D01*
X2202840Y-2789986D01*
X2200249Y-2786075D01*
X2191054Y-2775254D01*
X2180539Y-2765704D01*
X2168906Y-2757576D01*
X2156307Y-2750972D01*
X2144369Y-2746603D01*
X2140813Y-2744419D01*
X2138476Y-2741015D01*
X2137714Y-2736951D01*
X2138578Y-2732887D01*
X2141016Y-2729534D01*
X2150262Y-2718714D01*
X2157984Y-2706827D01*
X2164181Y-2694025D01*
X2168652Y-2680512D01*
X2171344Y-2666593D01*
X2172258Y-2652369D01*
X2171344Y-2638196D01*
X2168652Y-2624277D01*
X2164181Y-2610764D01*
X2157984Y-2597962D01*
X2150262Y-2586075D01*
X2141016Y-2575255D01*
X2130501Y-2565704D01*
X2118868Y-2557576D01*
X2106269Y-2550972D01*
X2092909Y-2546096D01*
X2079091Y-2542946D01*
X2064918Y-2541574D01*
X2050745Y-2542032D01*
X2036724Y-2544267D01*
X2023059Y-2548331D01*
X2010105Y-2554071D01*
X1997913Y-2561437D01*
X1986838Y-2570327D01*
X1976932Y-2580487D01*
X1968449Y-2591917D01*
X1961489Y-2604262D01*
X1956155Y-2617470D01*
X1952548Y-2631186D01*
X1950720Y-2645308D01*
X1950720Y-2659481D01*
X1952548Y-2673604D01*
X1956155Y-2687320D01*
X1961489Y-2700477D01*
X1968449Y-2712872D01*
X1976932Y-2724251D01*
X1986838Y-2734462D01*
X1997913Y-2743352D01*
X2010105Y-2750718D01*
X2023059Y-2756458D01*
X2028139Y-2757932D01*
X2031796Y-2759913D01*
X2034336Y-2763164D01*
X2035403Y-2767177D01*
X2034743Y-2771241D01*
X2032558Y-2774746D01*
X2026970Y-2780487D01*
X2018487Y-2791917D01*
X2011476Y-2804261D01*
X2006142Y-2817469D01*
X2002536Y-2831185D01*
X2000757Y-2845308D01*
X2000757Y-2859481D01*
X2002536Y-2873603D01*
X2006142Y-2887319D01*
X2011476Y-2900476D01*
X2018487Y-2912872D01*
X2026970Y-2924251D01*
X2036876Y-2934462D01*
X2047951Y-2943352D01*
X2060092Y-2950718D01*
X2073097Y-2956458D01*
X2086711Y-2960471D01*
X2100732Y-2962757D01*
G37*
G36*
X4876800Y-2769057D02*
G01*
X4886604Y-2768193D01*
X4896053Y-2765653D01*
X4904994Y-2761538D01*
X4913020Y-2755900D01*
X4919980Y-2748940D01*
X4925618Y-2740914D01*
X4929733Y-2731973D01*
X4932273Y-2722524D01*
X4933137Y-2712720D01*
X4932273Y-2702915D01*
X4929733Y-2693466D01*
X4925618Y-2684526D01*
X4919980Y-2676499D01*
X4913020Y-2669540D01*
X4904994Y-2663901D01*
X4896053Y-2659786D01*
X4886604Y-2657246D01*
X4876800Y-2656382D01*
X4866995Y-2657246D01*
X4857546Y-2659786D01*
X4848606Y-2663901D01*
X4840579Y-2669540D01*
X4833620Y-2676499D01*
X4827981Y-2684526D01*
X4823866Y-2693466D01*
X4821326Y-2702915D01*
X4820462Y-2712720D01*
X4821326Y-2722524D01*
X4823866Y-2731973D01*
X4827981Y-2740914D01*
X4833620Y-2748940D01*
X4840579Y-2755900D01*
X4848606Y-2761538D01*
X4857546Y-2765653D01*
X4866995Y-2768193D01*
G37*
G36*
X5504535Y-2729382D02*
G01*
X5519064Y-2729382D01*
X5533491Y-2727502D01*
X5547512Y-2723794D01*
X5560974Y-2718358D01*
X5573674Y-2711246D01*
X5585307Y-2702560D01*
X5595721Y-2692450D01*
X5604814Y-2681071D01*
X5612333Y-2668625D01*
X5618226Y-2655366D01*
X5622340Y-2641447D01*
X5624677Y-2627071D01*
X5625134Y-2612542D01*
X5623712Y-2598115D01*
X5620512Y-2583942D01*
X5615482Y-2570276D01*
X5608777Y-2557424D01*
X5600446Y-2545486D01*
X5590692Y-2534767D01*
X5579618Y-2525318D01*
X5567426Y-2517394D01*
X5554370Y-2511094D01*
X5540552Y-2506522D01*
X5526278Y-2503728D01*
X5511800Y-2502814D01*
X5497322Y-2503728D01*
X5483047Y-2506522D01*
X5469229Y-2511094D01*
X5456174Y-2517394D01*
X5443982Y-2525318D01*
X5432907Y-2534767D01*
X5423154Y-2545486D01*
X5414822Y-2557424D01*
X5408117Y-2570276D01*
X5403088Y-2583942D01*
X5399887Y-2598115D01*
X5398465Y-2612542D01*
X5398922Y-2627071D01*
X5401259Y-2641447D01*
X5405374Y-2655366D01*
X5411266Y-2668625D01*
X5418785Y-2681071D01*
X5427878Y-2692450D01*
X5438292Y-2702560D01*
X5449925Y-2711246D01*
X5462625Y-2718358D01*
X5476087Y-2723794D01*
X5490108Y-2727502D01*
G37*
G36*
X4876800Y-2568397D02*
G01*
X4886604Y-2567533D01*
X4896053Y-2564993D01*
X4904994Y-2560878D01*
X4913020Y-2555240D01*
X4919980Y-2548280D01*
X4925618Y-2540254D01*
X4929733Y-2531313D01*
X4932273Y-2521864D01*
X4933137Y-2512060D01*
X4932273Y-2502255D01*
X4929733Y-2492806D01*
X4925618Y-2483866D01*
X4919980Y-2475839D01*
X4913020Y-2468880D01*
X4904994Y-2463241D01*
X4896053Y-2459126D01*
X4886604Y-2456586D01*
X4876800Y-2455722D01*
X4866995Y-2456586D01*
X4857546Y-2459126D01*
X4848606Y-2463241D01*
X4840579Y-2468880D01*
X4833620Y-2475839D01*
X4827981Y-2483866D01*
X4823866Y-2492806D01*
X4821326Y-2502255D01*
X4820462Y-2512060D01*
X4821326Y-2521864D01*
X4823866Y-2531313D01*
X4827981Y-2540254D01*
X4833620Y-2548280D01*
X4840579Y-2555240D01*
X4848606Y-2560878D01*
X4857546Y-2564993D01*
X4866995Y-2567533D01*
G37*
G36*
X2214981Y-2563215D02*
G01*
X2229104Y-2561844D01*
X2242972Y-2558694D01*
X2256282Y-2553766D01*
X2268880Y-2547213D01*
X2280564Y-2539085D01*
X2291080Y-2529535D01*
X2300274Y-2518714D01*
X2302814Y-2514803D01*
X2305507Y-2512009D01*
X2309063Y-2510434D01*
X2312974Y-2510282D01*
X2316632Y-2511653D01*
X2319477Y-2514244D01*
X2326944Y-2524252D01*
X2336850Y-2534462D01*
X2347976Y-2543352D01*
X2360117Y-2550718D01*
X2373122Y-2556459D01*
X2386736Y-2560472D01*
X2400757Y-2562758D01*
X2414981Y-2563215D01*
X2429103Y-2561844D01*
X2442972Y-2558694D01*
X2456281Y-2553766D01*
X2468880Y-2547213D01*
X2480564Y-2539085D01*
X2491079Y-2529535D01*
X2500274Y-2518714D01*
X2507996Y-2506827D01*
X2514193Y-2494026D01*
X2518664Y-2480513D01*
X2521356Y-2466594D01*
X2522270Y-2452370D01*
X2521356Y-2438196D01*
X2518664Y-2424277D01*
X2514193Y-2410764D01*
X2507996Y-2397963D01*
X2500274Y-2386076D01*
X2491079Y-2375255D01*
X2480564Y-2365705D01*
X2468880Y-2357577D01*
X2456281Y-2350973D01*
X2442972Y-2346096D01*
X2429103Y-2342946D01*
X2414981Y-2341575D01*
X2400757Y-2342032D01*
X2386736Y-2344267D01*
X2373122Y-2348331D01*
X2360117Y-2354072D01*
X2347976Y-2361438D01*
X2336850Y-2370328D01*
X2326944Y-2380488D01*
X2319477Y-2390546D01*
X2316632Y-2393137D01*
X2312974Y-2394508D01*
X2309063Y-2394356D01*
X2305507Y-2392781D01*
X2302814Y-2389987D01*
X2300274Y-2386076D01*
X2291080Y-2375255D01*
X2280564Y-2365705D01*
X2268880Y-2357577D01*
X2256282Y-2350973D01*
X2242972Y-2346096D01*
X2229104Y-2342946D01*
X2214981Y-2341575D01*
X2200757Y-2342032D01*
X2186736Y-2344267D01*
X2173122Y-2348331D01*
X2160117Y-2354072D01*
X2147976Y-2361438D01*
X2136851Y-2370328D01*
X2126945Y-2380488D01*
X2118461Y-2391918D01*
X2111502Y-2404262D01*
X2106168Y-2417470D01*
X2102561Y-2431186D01*
X2100732Y-2445308D01*
X2100732Y-2459482D01*
X2102561Y-2473604D01*
X2106168Y-2487320D01*
X2111502Y-2500477D01*
X2118461Y-2512872D01*
X2126945Y-2524252D01*
X2136851Y-2534462D01*
X2147976Y-2543352D01*
X2160117Y-2550718D01*
X2173122Y-2556459D01*
X2186736Y-2560472D01*
X2200757Y-2562758D01*
G37*
G36*
X5504535Y-2475382D02*
G01*
X5519064Y-2475382D01*
X5533491Y-2473502D01*
X5547512Y-2469794D01*
X5560974Y-2464358D01*
X5573674Y-2457246D01*
X5585307Y-2448560D01*
X5595721Y-2438450D01*
X5604814Y-2427071D01*
X5612333Y-2414625D01*
X5618226Y-2401366D01*
X5622340Y-2387447D01*
X5624677Y-2373071D01*
X5625134Y-2358542D01*
X5623712Y-2344115D01*
X5620512Y-2329942D01*
X5615482Y-2316276D01*
X5608777Y-2303424D01*
X5600446Y-2291486D01*
X5590692Y-2280767D01*
X5579618Y-2271318D01*
X5567426Y-2263394D01*
X5554370Y-2257094D01*
X5540552Y-2252522D01*
X5526278Y-2249728D01*
X5511800Y-2248814D01*
X5497322Y-2249728D01*
X5483047Y-2252522D01*
X5469229Y-2257094D01*
X5456174Y-2263394D01*
X5443982Y-2271318D01*
X5432907Y-2280767D01*
X5423154Y-2291486D01*
X5414822Y-2303424D01*
X5408117Y-2316276D01*
X5403088Y-2329942D01*
X5399887Y-2344115D01*
X5398465Y-2358542D01*
X5398922Y-2373071D01*
X5401259Y-2387447D01*
X5405374Y-2401366D01*
X5411266Y-2414625D01*
X5418785Y-2427071D01*
X5427878Y-2438450D01*
X5438292Y-2448560D01*
X5449925Y-2457246D01*
X5462625Y-2464358D01*
X5476087Y-2469794D01*
X5490108Y-2473502D01*
G37*
G36*
X3351936Y-2342337D02*
G01*
X3361740Y-2341473D01*
X3371189Y-2338933D01*
X3380130Y-2334818D01*
X3388156Y-2329180D01*
X3395116Y-2322220D01*
X3400755Y-2314194D01*
X3404870Y-2305253D01*
X3407410Y-2295804D01*
X3408273Y-2286000D01*
X3407410Y-2276195D01*
X3404870Y-2266746D01*
X3400755Y-2257806D01*
X3395116Y-2249779D01*
X3388156Y-2242820D01*
X3380130Y-2237181D01*
X3371189Y-2233066D01*
X3361740Y-2230526D01*
X3351936Y-2229662D01*
X3342132Y-2230526D01*
X3332683Y-2233066D01*
X3323742Y-2237181D01*
X3315715Y-2242820D01*
X3308756Y-2249779D01*
X3303117Y-2257806D01*
X3299002Y-2266746D01*
X3296462Y-2276195D01*
X3295599Y-2286000D01*
X3296462Y-2295804D01*
X3299002Y-2305253D01*
X3303117Y-2314194D01*
X3308756Y-2322220D01*
X3315715Y-2329180D01*
X3323742Y-2334818D01*
X3332683Y-2338933D01*
X3342132Y-2341473D01*
G37*
G36*
X5504535Y-2221382D02*
G01*
X5519064Y-2221382D01*
X5533491Y-2219502D01*
X5547512Y-2215794D01*
X5560974Y-2210358D01*
X5573674Y-2203246D01*
X5585307Y-2194560D01*
X5595721Y-2184450D01*
X5604814Y-2173071D01*
X5612333Y-2160625D01*
X5618226Y-2147366D01*
X5622340Y-2133447D01*
X5624677Y-2119071D01*
X5625134Y-2104542D01*
X5623712Y-2090115D01*
X5620512Y-2075942D01*
X5615482Y-2062276D01*
X5608777Y-2049424D01*
X5600446Y-2037486D01*
X5590692Y-2026767D01*
X5579618Y-2017318D01*
X5567426Y-2009393D01*
X5554370Y-2003094D01*
X5540552Y-1998522D01*
X5526278Y-1995728D01*
X5511800Y-1994814D01*
X5497322Y-1995728D01*
X5483047Y-1998522D01*
X5469229Y-2003094D01*
X5456174Y-2009393D01*
X5443982Y-2017318D01*
X5432907Y-2026767D01*
X5423154Y-2037486D01*
X5414822Y-2049424D01*
X5408117Y-2062276D01*
X5403088Y-2075942D01*
X5399887Y-2090115D01*
X5398465Y-2104542D01*
X5398922Y-2119071D01*
X5401259Y-2133447D01*
X5405374Y-2147366D01*
X5411266Y-2160625D01*
X5418785Y-2173071D01*
X5427878Y-2184450D01*
X5438292Y-2194560D01*
X5449925Y-2203246D01*
X5462625Y-2210358D01*
X5476087Y-2215794D01*
X5490108Y-2219502D01*
G37*
G36*
X2731262Y-1970532D02*
G01*
X2756865Y-1970532D01*
X2763164Y-1969820D01*
X2768650Y-1967890D01*
X2773527Y-1964842D01*
X2777642Y-1960727D01*
X2780690Y-1955850D01*
X2782620Y-1950364D01*
X2783332Y-1944065D01*
X2783332Y-1918462D01*
X2731262Y-1918462D01*
G37*
G36*
X2627934Y-1970532D02*
G01*
X2653538Y-1970532D01*
X2653538Y-1918462D01*
X2601468Y-1918462D01*
X2601468Y-1944065D01*
X2602179Y-1950364D01*
X2604109Y-1955850D01*
X2607157Y-1960727D01*
X2611272Y-1964842D01*
X2616149Y-1967890D01*
X2621635Y-1969820D01*
G37*
G36*
X2119934Y-1970532D02*
G01*
X2248865Y-1970532D01*
X2255164Y-1969820D01*
X2260650Y-1967890D01*
X2265527Y-1964842D01*
X2269642Y-1960727D01*
X2272690Y-1955850D01*
X2274620Y-1950364D01*
X2275332Y-1944065D01*
X2275332Y-1815134D01*
X2274620Y-1808835D01*
X2272690Y-1803349D01*
X2269642Y-1798472D01*
X2265527Y-1794357D01*
X2260650Y-1791309D01*
X2255164Y-1789379D01*
X2248865Y-1788668D01*
X2119934Y-1788668D01*
X2113635Y-1789379D01*
X2108149Y-1791309D01*
X2103272Y-1794357D01*
X2099157Y-1798472D01*
X2096109Y-1803349D01*
X2094179Y-1808835D01*
X2093468Y-1815134D01*
X2093468Y-1944065D01*
X2094179Y-1950364D01*
X2096109Y-1955850D01*
X2099157Y-1960727D01*
X2103272Y-1964842D01*
X2108149Y-1967890D01*
X2113635Y-1969820D01*
G37*
G36*
X2373934Y-1970532D02*
G01*
X2502865Y-1970532D01*
X2509164Y-1969820D01*
X2514650Y-1967890D01*
X2519527Y-1964842D01*
X2523642Y-1960727D01*
X2526690Y-1955850D01*
X2528620Y-1950364D01*
X2529332Y-1944065D01*
X2529332Y-1815134D01*
X2528620Y-1808835D01*
X2526690Y-1803349D01*
X2523642Y-1798472D01*
X2519527Y-1794357D01*
X2514650Y-1791309D01*
X2509164Y-1789379D01*
X2502865Y-1788668D01*
X2373934Y-1788668D01*
X2367635Y-1789379D01*
X2362149Y-1791309D01*
X2357272Y-1794357D01*
X2353157Y-1798472D01*
X2350109Y-1803349D01*
X2348179Y-1808835D01*
X2347468Y-1815134D01*
X2347468Y-1944065D01*
X2348179Y-1950364D01*
X2350109Y-1955850D01*
X2353157Y-1960727D01*
X2357272Y-1964842D01*
X2362149Y-1967890D01*
X2367635Y-1969820D01*
G37*
G36*
X5504535Y-1967382D02*
G01*
X5519064Y-1967382D01*
X5533491Y-1965502D01*
X5547512Y-1961794D01*
X5560974Y-1956358D01*
X5573674Y-1949246D01*
X5585307Y-1940560D01*
X5595721Y-1930450D01*
X5604814Y-1919071D01*
X5612333Y-1906625D01*
X5618226Y-1893366D01*
X5622340Y-1879447D01*
X5624677Y-1865071D01*
X5625134Y-1850542D01*
X5623712Y-1836115D01*
X5620512Y-1821942D01*
X5615482Y-1808276D01*
X5608777Y-1795424D01*
X5600446Y-1783486D01*
X5590692Y-1772767D01*
X5579618Y-1763318D01*
X5567426Y-1755393D01*
X5554370Y-1749094D01*
X5540552Y-1744522D01*
X5526278Y-1741728D01*
X5511800Y-1740814D01*
X5497322Y-1741728D01*
X5483047Y-1744522D01*
X5469229Y-1749094D01*
X5456174Y-1755393D01*
X5443982Y-1763318D01*
X5432907Y-1772767D01*
X5423154Y-1783486D01*
X5414822Y-1795424D01*
X5408117Y-1808276D01*
X5403088Y-1821942D01*
X5399887Y-1836115D01*
X5398465Y-1850542D01*
X5398922Y-1865071D01*
X5401259Y-1879447D01*
X5405374Y-1893366D01*
X5411266Y-1906625D01*
X5418785Y-1919071D01*
X5427878Y-1930450D01*
X5438292Y-1940560D01*
X5449925Y-1949246D01*
X5462625Y-1956358D01*
X5476087Y-1961794D01*
X5490108Y-1965502D01*
G37*
G36*
X2601468Y-1840738D02*
G01*
X2653538Y-1840738D01*
X2653538Y-1788668D01*
X2627934Y-1788668D01*
X2621635Y-1789379D01*
X2616149Y-1791309D01*
X2611272Y-1794357D01*
X2607157Y-1798472D01*
X2604109Y-1803349D01*
X2602179Y-1808835D01*
X2601468Y-1815134D01*
G37*
G36*
X2731262Y-1840738D02*
G01*
X2783332Y-1840738D01*
X2783332Y-1815134D01*
X2782620Y-1808835D01*
X2780690Y-1803349D01*
X2777642Y-1798472D01*
X2773527Y-1794357D01*
X2768650Y-1791309D01*
X2763164Y-1789379D01*
X2756865Y-1788668D01*
X2731262Y-1788668D01*
G37*
G36*
X5424982Y-1713484D02*
G01*
X5461812Y-1713484D01*
X5461812Y-1650187D01*
X5398516Y-1650187D01*
X5398516Y-1687017D01*
X5399227Y-1693316D01*
X5401157Y-1698802D01*
X5404205Y-1703679D01*
X5408320Y-1707794D01*
X5413197Y-1710842D01*
X5418683Y-1712772D01*
G37*
G36*
X5562041Y-1713484D02*
G01*
X5598871Y-1713484D01*
X5605170Y-1712772D01*
X5610656Y-1710842D01*
X5615533Y-1707794D01*
X5619648Y-1703679D01*
X5622696Y-1698802D01*
X5624626Y-1693316D01*
X5625338Y-1687017D01*
X5625338Y-1650187D01*
X5562041Y-1650187D01*
G37*
G36*
X5398516Y-1549958D02*
G01*
X5461812Y-1549958D01*
X5461812Y-1486662D01*
X5424982Y-1486662D01*
X5418683Y-1487373D01*
X5413197Y-1489303D01*
X5408320Y-1492351D01*
X5404205Y-1496466D01*
X5401157Y-1501343D01*
X5399227Y-1506829D01*
X5398516Y-1513128D01*
G37*
G36*
X5562041Y-1549958D02*
G01*
X5625338Y-1549958D01*
X5625338Y-1513128D01*
X5624626Y-1506829D01*
X5622696Y-1501343D01*
X5619648Y-1496466D01*
X5615533Y-1492351D01*
X5610656Y-1489303D01*
X5605170Y-1487373D01*
X5598871Y-1486662D01*
X5562041Y-1486662D01*
G37*

%LPD*%
D10*
G01*
X4216654Y-3868420D03*
G01*
X4470654Y-3868420D03*
G01*
X4216654Y-4147820D03*
G01*
X4470654Y-4147820D03*
D11*
G01*
X3136900Y-2781300D03*
G01*
X3136900Y-2908300D03*
G01*
X3136900Y-3035300D03*
D12*
G01*
X2095500Y-3337052D03*
G01*
X2095500Y-3937000D03*
G01*
X2495550Y-3337052D03*
G01*
X2495550Y-3937000D03*
G01*
X2882900Y-3337052D03*
G01*
X2882900Y-3937000D03*
G01*
X3282950Y-3337052D03*
G01*
X3282950Y-3937000D03*
D13*
G01*
X2211400Y-2452395D03*
G01*
X2411399Y-2452395D03*
G01*
X2061387Y-2652395D03*
G01*
X2561386Y-2652395D03*
G01*
X2111400Y-2852394D03*
G01*
X2311400Y-2852394D03*
G01*
X2511399Y-2852394D03*
D14*
G01*
X2184400Y-1879600D03*
G01*
X2438400Y-1879600D03*
G01*
X2692400Y-1879600D03*
D15*
G01*
X5511800Y-2362200D03*
G01*
X5511800Y-2108200D03*
G01*
X5511800Y-1854200D03*
D16*
G01*
X5511927Y-1600072D03*
D15*
G01*
X5511800Y-2616200D03*
G01*
X5511800Y-2870200D03*
D17*
G01*
X4876800Y-2913379D03*
G01*
X4876800Y-2512060D03*
G01*
X4876800Y-2712720D03*
G01*
X5511800Y-3733800D03*
G01*
X3351936Y-2286000D03*
M02*
