G04 Layer: TopSilkscreenLayer*
G04 EasyEDA v6.5.15, 2022-09-09 10:58:47*
G04 19121817273c46a5bb41958087e4de9f,cdadd2d4b4cb47a19753abecc85b3b56,10*
G04 Gerber Generator version 0.2*
G04 Scale: 100 percent, Rotated: No, Reflected: No *
G04 Dimensions in millimeters *
G04 leading zeros omitted , absolute positions ,4 integer and 5 decimal *
%FSLAX45Y45*%
%MOMM*%

%ADD10C,0.1524*%
%ADD11C,0.2000*%
%ADD12C,0.2007*%
%ADD13C,0.2540*%
%ADD14C,0.6096*%
%ADD15C,0.1270*%
%ADD16C,0.0152*%

%LPD*%
D10*
X5650484Y-3759200D02*
G01*
X5759450Y-3759200D01*
X5650484Y-3759200D02*
G01*
X5650484Y-3712463D01*
X5655563Y-3696970D01*
X5660897Y-3691636D01*
X5671311Y-3686555D01*
X5681725Y-3686555D01*
X5692140Y-3691636D01*
X5697220Y-3696970D01*
X5702300Y-3712463D01*
X5702300Y-3759200D01*
X5702300Y-3722878D02*
G01*
X5759450Y-3686555D01*
X5650484Y-3589781D02*
G01*
X5650484Y-3641852D01*
X5697220Y-3646931D01*
X5692140Y-3641852D01*
X5686806Y-3626104D01*
X5686806Y-3610610D01*
X5692140Y-3595115D01*
X5702300Y-3584702D01*
X5718047Y-3579368D01*
X5728461Y-3579368D01*
X5743956Y-3584702D01*
X5754370Y-3595115D01*
X5759450Y-3610610D01*
X5759450Y-3626104D01*
X5754370Y-3641852D01*
X5749290Y-3646931D01*
X5738875Y-3652265D01*
X3988950Y-3847592D02*
G01*
X3983616Y-3837178D01*
X3973202Y-3826763D01*
X3963042Y-3821684D01*
X3942214Y-3821684D01*
X3931800Y-3826763D01*
X3921386Y-3837178D01*
X3916052Y-3847592D01*
X3910972Y-3863339D01*
X3910972Y-3889247D01*
X3916052Y-3904742D01*
X3921386Y-3915155D01*
X3931800Y-3925570D01*
X3942214Y-3930650D01*
X3963042Y-3930650D01*
X3973202Y-3925570D01*
X3983616Y-3915155D01*
X3988950Y-3904742D01*
X4023240Y-3842512D02*
G01*
X4033654Y-3837178D01*
X4049148Y-3821684D01*
X4049148Y-3930650D01*
X3965580Y-4126992D02*
G01*
X3960246Y-4116578D01*
X3949832Y-4106163D01*
X3939672Y-4101084D01*
X3918844Y-4101084D01*
X3908430Y-4106163D01*
X3898016Y-4116578D01*
X3892682Y-4126992D01*
X3887602Y-4142739D01*
X3887602Y-4168647D01*
X3892682Y-4184142D01*
X3898016Y-4194555D01*
X3908430Y-4204970D01*
X3918844Y-4210050D01*
X3939672Y-4210050D01*
X3949832Y-4204970D01*
X3960246Y-4194555D01*
X3965580Y-4184142D01*
X4004950Y-4126992D02*
G01*
X4004950Y-4121912D01*
X4010284Y-4111497D01*
X4015364Y-4106163D01*
X4025778Y-4101084D01*
X4046606Y-4101084D01*
X4057020Y-4106163D01*
X4062100Y-4111497D01*
X4067434Y-4121912D01*
X4067434Y-4132326D01*
X4062100Y-4142739D01*
X4051686Y-4158234D01*
X3999870Y-4210050D01*
X4072514Y-4210050D01*
X2825241Y-2983484D02*
G01*
X2814827Y-2988563D01*
X2804413Y-2998978D01*
X2799079Y-3009392D01*
X2794000Y-3025139D01*
X2794000Y-3051047D01*
X2799079Y-3066542D01*
X2804413Y-3076955D01*
X2814827Y-3087370D01*
X2825241Y-3092450D01*
X2846070Y-3092450D01*
X2856229Y-3087370D01*
X2866643Y-3076955D01*
X2871977Y-3066542D01*
X2877058Y-3051047D01*
X2877058Y-3025139D01*
X2871977Y-3009392D01*
X2866643Y-2998978D01*
X2856229Y-2988563D01*
X2846070Y-2983484D01*
X2825241Y-2983484D01*
X2840736Y-3071876D02*
G01*
X2871977Y-3102863D01*
X2911347Y-3004312D02*
G01*
X2921761Y-2998978D01*
X2937509Y-2983484D01*
X2937509Y-3092450D01*
X1881378Y-3737355D02*
G01*
X1870963Y-3747770D01*
X1865884Y-3763263D01*
X1865884Y-3784092D01*
X1870963Y-3799586D01*
X1881378Y-3810000D01*
X1891792Y-3810000D01*
X1902205Y-3804920D01*
X1907539Y-3799586D01*
X1912620Y-3789171D01*
X1923034Y-3757929D01*
X1928113Y-3747770D01*
X1933447Y-3742436D01*
X1943862Y-3737355D01*
X1959355Y-3737355D01*
X1969770Y-3747770D01*
X1974850Y-3763263D01*
X1974850Y-3784092D01*
X1969770Y-3799586D01*
X1959355Y-3810000D01*
X1865884Y-3703065D02*
G01*
X1974850Y-3676904D01*
X1865884Y-3650995D02*
G01*
X1974850Y-3676904D01*
X1865884Y-3650995D02*
G01*
X1974850Y-3625087D01*
X1865884Y-3599179D02*
G01*
X1974850Y-3625087D01*
X1886712Y-3564889D02*
G01*
X1881378Y-3554476D01*
X1865884Y-3538728D01*
X1974850Y-3538728D01*
X2668777Y-3737355D02*
G01*
X2658363Y-3747770D01*
X2653284Y-3763263D01*
X2653284Y-3784092D01*
X2658363Y-3799586D01*
X2668777Y-3810000D01*
X2679191Y-3810000D01*
X2689606Y-3804920D01*
X2694940Y-3799586D01*
X2700020Y-3789171D01*
X2710434Y-3757929D01*
X2715513Y-3747770D01*
X2720847Y-3742436D01*
X2731261Y-3737355D01*
X2746756Y-3737355D01*
X2757170Y-3747770D01*
X2762250Y-3763263D01*
X2762250Y-3784092D01*
X2757170Y-3799586D01*
X2746756Y-3810000D01*
X2653284Y-3703065D02*
G01*
X2762250Y-3676904D01*
X2653284Y-3650995D02*
G01*
X2762250Y-3676904D01*
X2653284Y-3650995D02*
G01*
X2762250Y-3625087D01*
X2653284Y-3599179D02*
G01*
X2762250Y-3625087D01*
X2679191Y-3559555D02*
G01*
X2674111Y-3559555D01*
X2663697Y-3554476D01*
X2658363Y-3549142D01*
X2653284Y-3538728D01*
X2653284Y-3517900D01*
X2658363Y-3507739D01*
X2663697Y-3502405D01*
X2674111Y-3497326D01*
X2684525Y-3497326D01*
X2694940Y-3502405D01*
X2710434Y-3512820D01*
X2762250Y-3564889D01*
X2762250Y-3491992D01*
X2717800Y-2297684D02*
G01*
X2717800Y-2406650D01*
X2717800Y-2297684D02*
G01*
X2764536Y-2297684D01*
X2780029Y-2302763D01*
X2785363Y-2308097D01*
X2790443Y-2318512D01*
X2790443Y-2334005D01*
X2785363Y-2344420D01*
X2780029Y-2349500D01*
X2764536Y-2354834D01*
X2717800Y-2354834D01*
X2824734Y-2318512D02*
G01*
X2835147Y-2313178D01*
X2850895Y-2297684D01*
X2850895Y-2406650D01*
D11*
X3901389Y-2614396D02*
G01*
X3901389Y-2757652D01*
X3901389Y-2614396D02*
G01*
X3990035Y-2614396D01*
X3901389Y-2682468D02*
G01*
X3955999Y-2682468D01*
X3901389Y-2757652D02*
G01*
X3990035Y-2757652D01*
X4130497Y-2634716D02*
G01*
X4116781Y-2621254D01*
X4096461Y-2614396D01*
X4069029Y-2614396D01*
X4048709Y-2621254D01*
X4034993Y-2634716D01*
X4034993Y-2648432D01*
X4041851Y-2662148D01*
X4048709Y-2669006D01*
X4062171Y-2675610D01*
X4103319Y-2689326D01*
X4116781Y-2696184D01*
X4123639Y-2703042D01*
X4130497Y-2716758D01*
X4130497Y-2737078D01*
X4116781Y-2750794D01*
X4096461Y-2757652D01*
X4069029Y-2757652D01*
X4048709Y-2750794D01*
X4034993Y-2737078D01*
X4175455Y-2614396D02*
G01*
X4175455Y-2757652D01*
X4175455Y-2614396D02*
G01*
X4236923Y-2614396D01*
X4257243Y-2621254D01*
X4264101Y-2628112D01*
X4270959Y-2641574D01*
X4270959Y-2662148D01*
X4264101Y-2675610D01*
X4257243Y-2682468D01*
X4236923Y-2689326D01*
X4175455Y-2689326D01*
X4315917Y-2696184D02*
G01*
X4438599Y-2696184D01*
X4483557Y-2641574D02*
G01*
X4497273Y-2634716D01*
X4517847Y-2614396D01*
X4517847Y-2757652D01*
X4569663Y-2648432D02*
G01*
X4569663Y-2641574D01*
X4576267Y-2628112D01*
X4583125Y-2621254D01*
X4596841Y-2614396D01*
X4624019Y-2614396D01*
X4637735Y-2621254D01*
X4644593Y-2628112D01*
X4651451Y-2641574D01*
X4651451Y-2655290D01*
X4644593Y-2669006D01*
X4630877Y-2689326D01*
X4562805Y-2757652D01*
X4658309Y-2757652D01*
X4703267Y-2614396D02*
G01*
X4703267Y-2757652D01*
X4703267Y-2614396D02*
G01*
X4791913Y-2614396D01*
X4703267Y-2682468D02*
G01*
X4757877Y-2682468D01*
D10*
X3048000Y-1307084D02*
G01*
X3048000Y-1385062D01*
X3053079Y-1400555D01*
X3063493Y-1410970D01*
X3079241Y-1416050D01*
X3089656Y-1416050D01*
X3105150Y-1410970D01*
X3115563Y-1400555D01*
X3120643Y-1385062D01*
X3120643Y-1307084D01*
X3160268Y-1332992D02*
G01*
X3160268Y-1327912D01*
X3165347Y-1317497D01*
X3170681Y-1312163D01*
X3181095Y-1307084D01*
X3201670Y-1307084D01*
X3212084Y-1312163D01*
X3217418Y-1317497D01*
X3222497Y-1327912D01*
X3222497Y-1338326D01*
X3217418Y-1348739D01*
X3207004Y-1364234D01*
X3154934Y-1416050D01*
X3227831Y-1416050D01*
X3149600Y-1891284D02*
G01*
X3149600Y-2000250D01*
X3149600Y-1891284D02*
G01*
X3196336Y-1891284D01*
X3211829Y-1896363D01*
X3217163Y-1901697D01*
X3222243Y-1912112D01*
X3222243Y-1922526D01*
X3217163Y-1932939D01*
X3211829Y-1938020D01*
X3196336Y-1943100D01*
X3149600Y-1943100D01*
X3185922Y-1943100D02*
G01*
X3222243Y-2000250D01*
X3256534Y-1912112D02*
G01*
X3266947Y-1906778D01*
X3282695Y-1891284D01*
X3282695Y-2000250D01*
X5269484Y-3759200D02*
G01*
X5378450Y-3759200D01*
X5269484Y-3759200D02*
G01*
X5269484Y-3712463D01*
X5274563Y-3696970D01*
X5279897Y-3691636D01*
X5290311Y-3686555D01*
X5300725Y-3686555D01*
X5311140Y-3691636D01*
X5316220Y-3696970D01*
X5321300Y-3712463D01*
X5321300Y-3759200D01*
X5321300Y-3722878D02*
G01*
X5378450Y-3686555D01*
X5269484Y-3641852D02*
G01*
X5269484Y-3584702D01*
X5311140Y-3615689D01*
X5311140Y-3600195D01*
X5316220Y-3589781D01*
X5321300Y-3584702D01*
X5337047Y-3579368D01*
X5347461Y-3579368D01*
X5362956Y-3584702D01*
X5373370Y-3595115D01*
X5378450Y-3610610D01*
X5378450Y-3626104D01*
X5373370Y-3641852D01*
X5368290Y-3646931D01*
X5357875Y-3652265D01*
X5472684Y-3759200D02*
G01*
X5581650Y-3759200D01*
X5472684Y-3759200D02*
G01*
X5472684Y-3712463D01*
X5477763Y-3696970D01*
X5483097Y-3691636D01*
X5493511Y-3686555D01*
X5503925Y-3686555D01*
X5514340Y-3691636D01*
X5519420Y-3696970D01*
X5524500Y-3712463D01*
X5524500Y-3759200D01*
X5524500Y-3722878D02*
G01*
X5581650Y-3686555D01*
X5472684Y-3600195D02*
G01*
X5545327Y-3652265D01*
X5545327Y-3574287D01*
X5472684Y-3600195D02*
G01*
X5581650Y-3600195D01*
X5355843Y-1322578D02*
G01*
X5345429Y-1312163D01*
X5329936Y-1307084D01*
X5309108Y-1307084D01*
X5293613Y-1312163D01*
X5283200Y-1322578D01*
X5283200Y-1332992D01*
X5288279Y-1343405D01*
X5293613Y-1348739D01*
X5304027Y-1353820D01*
X5335270Y-1364234D01*
X5345429Y-1369313D01*
X5350763Y-1374647D01*
X5355843Y-1385062D01*
X5355843Y-1400555D01*
X5345429Y-1410970D01*
X5329936Y-1416050D01*
X5309108Y-1416050D01*
X5293613Y-1410970D01*
X5283200Y-1400555D01*
X5390134Y-1307084D02*
G01*
X5416295Y-1416050D01*
X5442204Y-1307084D02*
G01*
X5416295Y-1416050D01*
X5442204Y-1307084D02*
G01*
X5468111Y-1416050D01*
X5494020Y-1307084D02*
G01*
X5468111Y-1416050D01*
X5528309Y-1307084D02*
G01*
X5528309Y-1416050D01*
X5528309Y-1307084D02*
G01*
X5564886Y-1307084D01*
X5580379Y-1312163D01*
X5590793Y-1322578D01*
X5595874Y-1332992D01*
X5601208Y-1348739D01*
X5601208Y-1374647D01*
X5595874Y-1390142D01*
X5590793Y-1400555D01*
X5580379Y-1410970D01*
X5564886Y-1416050D01*
X5528309Y-1416050D01*
X5635497Y-1327912D02*
G01*
X5645911Y-1322578D01*
X5661406Y-1307084D01*
X5661406Y-1416050D01*
X3149600Y-2297684D02*
G01*
X3149600Y-2406650D01*
X3149600Y-2297684D02*
G01*
X3196336Y-2297684D01*
X3211829Y-2302763D01*
X3217163Y-2308097D01*
X3222243Y-2318512D01*
X3222243Y-2328926D01*
X3217163Y-2339339D01*
X3211829Y-2344420D01*
X3196336Y-2349500D01*
X3149600Y-2349500D01*
X3185922Y-2349500D02*
G01*
X3222243Y-2406650D01*
X3261868Y-2323592D02*
G01*
X3261868Y-2318512D01*
X3266947Y-2308097D01*
X3272281Y-2302763D01*
X3282695Y-2297684D01*
X3303270Y-2297684D01*
X3313684Y-2302763D01*
X3319018Y-2308097D01*
X3324097Y-2318512D01*
X3324097Y-2328926D01*
X3319018Y-2339339D01*
X3308604Y-2354834D01*
X3256534Y-2406650D01*
X3329431Y-2406650D01*
X5636254Y-3380038D02*
G01*
X5636254Y-3284151D01*
X5768375Y-3284151D01*
X5768375Y-3380038D01*
X5636254Y-3465281D02*
G01*
X5636254Y-3561168D01*
X5768375Y-3561168D01*
X5768375Y-3465281D01*
D12*
X4597410Y-3741673D02*
G01*
X4089410Y-3741673D01*
X4089410Y-3995673D01*
X4597410Y-3995673D01*
X4597410Y-3741673D01*
X4597410Y-4021073D02*
G01*
X4089410Y-4021073D01*
X4089410Y-4275073D01*
X4597410Y-4275073D01*
X4597410Y-4021073D01*
D13*
X2986913Y-3106293D02*
G01*
X2986913Y-2710306D01*
X2595499Y-3937000D02*
G01*
X1995500Y-3937000D01*
X1995500Y-3337001D01*
X2595499Y-3337001D01*
X2595499Y-3937000D01*
X3382899Y-3937000D02*
G01*
X2782900Y-3937000D01*
X2782900Y-3337001D01*
X3382899Y-3337001D01*
X3382899Y-3937000D01*
X5143398Y-1262405D02*
G01*
X5143398Y-2001520D01*
X3543401Y-2001520D02*
G01*
X3543401Y-1262405D01*
X3543401Y-1262405D02*
G01*
X5143398Y-1262405D01*
D14*
X3653409Y-1795398D02*
G01*
X3654399Y-1366393D01*
X3654399Y-1366393D02*
G01*
X4109389Y-1366393D01*
X3883406Y-1366393D02*
G01*
X3883406Y-1795398D01*
X4113402Y-1600403D02*
G01*
X4113402Y-1366393D01*
X4803393Y-1366393D02*
G01*
X4803393Y-1600403D01*
X4573397Y-1366393D02*
G01*
X4573397Y-1600403D01*
X4343400Y-1600403D02*
G01*
X4343400Y-1366393D01*
X5032400Y-1366393D02*
G01*
X5033390Y-1795398D01*
D13*
X5143398Y-3665220D02*
G01*
X3533140Y-3665220D01*
D14*
X4113326Y-1607464D02*
G01*
X4343400Y-1607413D01*
X4343400Y-1366393D02*
G01*
X4564405Y-1366393D01*
X4577410Y-1600403D02*
G01*
X4798390Y-1600403D01*
X4811395Y-1366393D02*
G01*
X5032400Y-1366393D01*
D13*
X1854200Y-2080260D02*
G01*
X1854200Y-1320800D01*
X1854200Y-1320800D02*
G01*
X3022600Y-1320800D01*
X3022600Y-1320800D02*
G01*
X3022600Y-2080260D01*
X3022600Y-2080260D02*
G01*
X1854200Y-2080260D01*
D10*
X3233978Y-2042139D02*
G01*
X3138091Y-2042139D01*
X3138091Y-2174260D01*
X3233978Y-2174260D01*
X3319221Y-2042139D02*
G01*
X3415108Y-2042139D01*
X3415108Y-2174260D01*
X3319221Y-2174260D01*
X5267939Y-3465281D02*
G01*
X5267939Y-3561168D01*
X5400060Y-3561168D01*
X5400060Y-3465281D01*
X5267939Y-3380038D02*
G01*
X5267939Y-3284151D01*
X5400060Y-3284151D01*
X5400060Y-3380038D01*
X5458454Y-3465281D02*
G01*
X5458454Y-3561168D01*
X5590575Y-3561168D01*
X5590575Y-3465281D01*
X5458454Y-3380038D02*
G01*
X5458454Y-3284151D01*
X5590575Y-3284151D01*
X5590575Y-3380038D01*
D13*
X5384800Y-2997200D02*
G01*
X5638800Y-2997200D01*
X5384800Y-1473200D02*
G01*
X5638800Y-1473200D01*
X5638800Y-2997200D02*
G01*
X5638800Y-1473200D01*
X5384800Y-2997200D02*
G01*
X5384800Y-1473200D01*
D10*
X3319221Y-2580660D02*
G01*
X3415108Y-2580660D01*
X3415108Y-2448539D01*
X3319221Y-2448539D01*
X3233978Y-2580660D02*
G01*
X3138091Y-2580660D01*
X3138091Y-2448539D01*
X3233978Y-2448539D01*
D13*
G75*
G01*
X2986786Y-3106420D02*
G03*
X2986786Y-2710180I149840J198120D01*
D15*
G75*
G01*
X2149602Y-3632962D02*
G03*
X2149602Y-3630676I136010J1143D01*
G75*
G01*
X2096770Y-3637026D02*
G03*
X2096770Y-3633724I188672J1651D01*
G75*
G01*
X2937002Y-3632962D02*
G03*
X2937002Y-3630676I136010J1143D01*
G75*
G01*
X2884170Y-3637026D02*
G03*
X2884170Y-3633724I188672J1651D01*
D13*
G75*
G01*
X2379792Y-3149600D02*
G03*
X2243008Y-3149600I-68392J0D01*
G75*
G01
X2783891Y-2692400D02*
G03X2783891Y-2692400I-472491J0D01*
G75*
G01
X2159000Y-2336800D02*
G03X2159000Y-2336800I-12700J0D01*
G75*
G01
X1971040Y-1993900D02*
G03X1971040Y-1993900I-40640J0D01*
M02*
