G04 Layer: BottomLayer*
G04 EasyEDA v6.5.15, 2022-09-09 10:58:47*
G04 19121817273c46a5bb41958087e4de9f,cdadd2d4b4cb47a19753abecc85b3b56,10*
G04 Gerber Generator version 0.2*
G04 Scale: 100 percent, Rotated: No, Reflected: No *
G04 Dimensions in millimeters *
G04 leading zeros omitted , absolute positions ,4 integer and 5 decimal *
%FSLAX45Y45*%
%MOMM*%

%ADD10C,0.2000*%
%ADD11C,0.2540*%
%ADD12C,1.1938*%
%ADD13O,1.9999959999999999X0.9999979999999999*%
%ADD14C,1.5240*%
%ADD15C,1.7000*%
%ADD16R,1.3005X1.3005*%
%ADD17C,1.7501*%
%ADD18R,1.7501X1.7501*%
%ADD19C,0.6096*%

%LPD*%
D10*
X4761991Y-3343147D02*
G01*
X4761991Y-3405123D01*
X4765802Y-3416554D01*
X4769611Y-3420618D01*
X4777486Y-3424428D01*
X4785106Y-3424428D01*
X4792979Y-3420618D01*
X4796790Y-3416554D01*
X4800600Y-3405123D01*
X4800600Y-3397250D01*
X4736338Y-3343147D02*
G01*
X4736338Y-3424428D01*
X4736338Y-3424428D02*
G01*
X4690109Y-3424428D01*
X4606543Y-3362452D02*
G01*
X4610608Y-3354831D01*
X4618227Y-3347212D01*
X4625847Y-3343147D01*
X4641341Y-3343147D01*
X4649215Y-3347212D01*
X4656836Y-3354831D01*
X4660645Y-3362452D01*
X4664709Y-3374136D01*
X4664709Y-3393439D01*
X4660645Y-3405123D01*
X4656836Y-3412744D01*
X4649215Y-3420618D01*
X4641341Y-3424428D01*
X4625847Y-3424428D01*
X4618227Y-3420618D01*
X4610608Y-3412744D01*
X4606543Y-3405123D01*
X4542536Y-3343147D02*
G01*
X4542536Y-3405123D01*
X4546345Y-3416554D01*
X4550156Y-3420618D01*
X4558029Y-3424428D01*
X4565650Y-3424428D01*
X4573524Y-3420618D01*
X4577334Y-3416554D01*
X4581143Y-3405123D01*
X4581143Y-3397250D01*
X4517136Y-3343147D02*
G01*
X4517136Y-3424428D01*
X4517136Y-3424428D02*
G01*
X4470654Y-3424428D01*
X4387088Y-3362452D02*
G01*
X4391152Y-3354831D01*
X4398772Y-3347212D01*
X4406391Y-3343147D01*
X4421886Y-3343147D01*
X4429759Y-3347212D01*
X4437379Y-3354831D01*
X4441190Y-3362452D01*
X4445254Y-3374136D01*
X4445254Y-3393439D01*
X4441190Y-3405123D01*
X4437379Y-3412744D01*
X4429759Y-3420618D01*
X4421886Y-3424428D01*
X4406391Y-3424428D01*
X4398772Y-3420618D01*
X4391152Y-3412744D01*
X4387088Y-3405123D01*
X4323079Y-3343147D02*
G01*
X4323079Y-3405123D01*
X4326890Y-3416554D01*
X4330700Y-3420618D01*
X4338574Y-3424428D01*
X4346193Y-3424428D01*
X4354068Y-3420618D01*
X4357877Y-3416554D01*
X4361688Y-3405123D01*
X4361688Y-3397250D01*
X4297679Y-3343147D02*
G01*
X4297679Y-3424428D01*
X4297679Y-3424428D02*
G01*
X4251197Y-3424428D01*
X4167631Y-3362452D02*
G01*
X4171695Y-3354831D01*
X4179315Y-3347212D01*
X4186936Y-3343147D01*
X4202429Y-3343147D01*
X4210304Y-3347212D01*
X4217924Y-3354831D01*
X4221734Y-3362452D01*
X4225797Y-3374136D01*
X4225797Y-3393439D01*
X4221734Y-3405123D01*
X4217924Y-3412744D01*
X4210304Y-3420618D01*
X4202429Y-3424428D01*
X4186936Y-3424428D01*
X4179315Y-3420618D01*
X4171695Y-3412744D01*
X4167631Y-3405123D01*
X4103624Y-3343147D02*
G01*
X4103624Y-3405123D01*
X4107434Y-3416554D01*
X4111243Y-3420618D01*
X4119118Y-3424428D01*
X4126738Y-3424428D01*
X4134611Y-3420618D01*
X4138422Y-3416554D01*
X4142231Y-3405123D01*
X4142231Y-3397250D01*
X4078224Y-3343147D02*
G01*
X4078224Y-3424428D01*
X4078224Y-3424428D02*
G01*
X4031741Y-3424428D01*
X3948175Y-3362452D02*
G01*
X3952240Y-3354831D01*
X3959859Y-3347212D01*
X3967479Y-3343147D01*
X3982974Y-3343147D01*
X3990847Y-3347212D01*
X3998468Y-3354831D01*
X4002277Y-3362452D01*
X4006341Y-3374136D01*
X4006341Y-3393439D01*
X4002277Y-3405123D01*
X3998468Y-3412744D01*
X3990847Y-3420618D01*
X3982974Y-3424428D01*
X3967479Y-3424428D01*
X3959859Y-3420618D01*
X3952240Y-3412744D01*
X3948175Y-3405123D01*
D11*
X3351936Y-2286000D02*
G01*
X4927600Y-2286000D01*
X5511800Y-2870200D01*
X4876800Y-2712720D02*
G01*
X4808220Y-2781300D01*
X3136900Y-2781300D01*
X4876800Y-2913379D02*
G01*
X3706622Y-2913379D01*
X3282950Y-3337052D01*
X2561386Y-2652395D02*
G01*
X2817291Y-2908300D01*
X3136900Y-2908300D01*
X2061387Y-2652395D02*
G01*
X2336800Y-2641600D01*
X2565400Y-2514600D01*
X4874259Y-2514600D01*
X4876800Y-2512060D01*
D12*
G01*
X4216654Y-3868420D03*
G01*
X4470654Y-3868420D03*
G01*
X4216654Y-4147820D03*
G01*
X4470654Y-4147820D03*
D13*
G01*
X3136900Y-2781300D03*
G01*
X3136900Y-2908300D03*
G01*
X3136900Y-3035300D03*
D14*
G01*
X2095500Y-3337052D03*
G01*
X2095500Y-3937000D03*
G01*
X2495550Y-3337052D03*
G01*
X2495550Y-3937000D03*
G01*
X2882900Y-3337052D03*
G01*
X2882900Y-3937000D03*
G01*
X3282950Y-3337052D03*
G01*
X3282950Y-3937000D03*
D15*
G01*
X2211400Y-2452395D03*
G01*
X2411399Y-2452395D03*
G01*
X2061387Y-2652395D03*
G01*
X2561386Y-2652395D03*
G01*
X2111400Y-2852394D03*
G01*
X2311400Y-2852394D03*
G01*
X2511399Y-2852394D03*
D16*
G01*
X2184400Y-1879600D03*
G01*
X2438400Y-1879600D03*
G01*
X2692400Y-1879600D03*
D17*
G01*
X5511800Y-2362200D03*
G01*
X5511800Y-2108200D03*
G01*
X5511800Y-1854200D03*
D18*
G01*
X5511927Y-1600072D03*
D17*
G01*
X5511800Y-2616200D03*
G01*
X5511800Y-2870200D03*
D19*
G01*
X4876800Y-2913379D03*
G01*
X4876800Y-2512060D03*
G01*
X4876800Y-2712720D03*
G01*
X5511800Y-3733800D03*
G01*
X3351936Y-2286000D03*
M02*
