G04 Layer: TopLayer*
G04 EasyEDA v6.5.15, 2022-09-09 10:58:47*
G04 19121817273c46a5bb41958087e4de9f,cdadd2d4b4cb47a19753abecc85b3b56,10*
G04 Gerber Generator version 0.2*
G04 Scale: 100 percent, Rotated: No, Reflected: No *
G04 Dimensions in millimeters *
G04 leading zeros omitted , absolute positions ,4 integer and 5 decimal *
%FSLAX45Y45*%
%MOMM*%

%AMMACRO1*21,1,$1,$2,0,0,$3*%
%ADD10C,0.2540*%
%ADD11C,1.0000*%
%ADD12C,0.1524*%
%ADD13MACRO1,0.864X0.8065X0.0000*%
%ADD14R,0.8640X0.8065*%
%ADD15R,2.0000X1.1989*%
%ADD16MACRO1,0.864X0.8065X-90.0000*%
%ADD17MACRO1,0.864X0.8065X90.0000*%
%ADD18C,1.1938*%
%ADD19O,1.9999959999999999X0.9999979999999999*%
%ADD20C,1.5240*%
%ADD21C,1.7000*%
%ADD22R,1.3005X1.3005*%
%ADD23C,1.7501*%
%ADD24R,1.7501X1.7501*%
%ADD25C,0.6096*%

%LPD*%
D10*
X3351936Y-2108200D02*
G01*
X3351936Y-2286000D01*
X5524515Y-3491651D02*
G01*
X5524515Y-3721084D01*
X5511800Y-3733800D01*
X5702315Y-3340978D02*
G01*
X5274716Y-2913379D01*
X5113477Y-2913379D01*
X5524515Y-3340978D02*
G01*
X5295036Y-3111500D01*
X5113477Y-3111500D01*
X5113477Y-2913379D02*
G01*
X5232400Y-2913379D01*
X5511800Y-2616200D01*
X5702315Y-3491646D02*
G01*
X5524515Y-3491646D01*
X5334000Y-3353663D02*
G01*
X5292496Y-3312160D01*
X5113477Y-3312160D01*
X5334000Y-3504336D02*
G01*
X5325516Y-3512820D01*
X5113477Y-3512820D01*
D11*
X5113477Y-3512820D02*
G01*
X4826264Y-3512820D01*
X4470664Y-3868420D01*
X3573348Y-3512820D02*
G01*
X3861064Y-3512820D01*
X4216664Y-3868420D01*
D10*
X5113477Y-2712720D02*
G01*
X4876800Y-2712720D01*
X5113477Y-2512060D02*
G01*
X4876800Y-2512060D01*
X5113477Y-2913379D02*
G01*
X4876800Y-2913379D01*
X2184400Y-1625600D02*
G01*
X2108200Y-1625600D01*
X1905000Y-1828800D01*
X1905000Y-2971800D01*
X1981200Y-3048000D01*
X2206497Y-3048000D01*
X2495550Y-3337052D01*
X3351936Y-2108200D02*
G01*
X3351936Y-2005736D01*
X2971800Y-1625600D01*
X2184400Y-1625600D01*
D12*
X3573348Y-2913379D02*
G01*
X3450463Y-2913379D01*
D10*
X3201263Y-2108200D02*
G01*
X2972663Y-1879600D01*
X2692400Y-1879600D01*
X3201263Y-2514600D02*
G01*
X3201263Y-2108200D01*
X3351936Y-2514600D02*
G01*
X3354476Y-2512060D01*
X3573348Y-2512060D01*
X3352038Y-2108200D02*
G01*
X3357118Y-2113279D01*
X3436620Y-2113279D01*
X3573525Y-2113279D01*
D11*
X4470664Y-3868420D02*
G01*
X4470664Y-4147820D01*
X4216664Y-3868420D02*
G01*
X4216664Y-4147820D01*
X2411476Y-2452370D02*
G01*
X2312415Y-2452370D01*
X2211323Y-2452370D01*
D10*
X5511800Y-2362200D02*
G01*
X5113474Y-2362200D01*
X5113474Y-2164079D02*
G01*
X5455920Y-2164079D01*
X5511800Y-2108200D01*
D11*
X2211400Y-2452395D02*
G01*
X2184400Y-2425395D01*
X2184400Y-1879600D01*
D12*
X3450590Y-2913379D02*
G01*
X3188715Y-3175000D01*
X2434081Y-3175000D01*
X2111502Y-2852420D01*
D13*
G01*
X5702315Y-3497985D03*
D14*
G01*
X5702325Y-3347338D03*
D15*
G01*
X3573475Y-2113279D03*
G01*
X3573475Y-2311400D03*
G01*
X3573348Y-2512060D03*
G01*
X3573348Y-2712720D03*
G01*
X3573348Y-2913379D03*
G01*
X3573348Y-3111500D03*
G01*
X3573348Y-3312160D03*
G01*
X3573348Y-3512820D03*
G01*
X5113477Y-2113279D03*
G01*
X5113477Y-2311400D03*
G01*
X5113477Y-2512060D03*
G01*
X5113477Y-2712720D03*
G01*
X5113477Y-2913379D03*
G01*
X5113477Y-3111500D03*
G01*
X5113477Y-3312160D03*
G01*
X5113477Y-3512820D03*
D16*
G01*
X3201275Y-2108200D03*
G01*
X3351924Y-2108200D03*
D13*
G01*
X5334000Y-3497985D03*
D14*
G01*
X5334000Y-3347338D03*
D13*
G01*
X5524515Y-3497985D03*
D14*
G01*
X5524525Y-3347338D03*
D17*
G01*
X3351924Y-2514600D03*
G01*
X3201275Y-2514600D03*
D18*
G01*
X4216654Y-3868420D03*
G01*
X4470654Y-3868420D03*
G01*
X4216654Y-4147820D03*
G01*
X4470654Y-4147820D03*
D19*
G01*
X3136900Y-2781300D03*
G01*
X3136900Y-2908300D03*
G01*
X3136900Y-3035300D03*
D20*
G01*
X2095500Y-3337052D03*
G01*
X2095500Y-3937000D03*
G01*
X2495550Y-3337052D03*
G01*
X2495550Y-3937000D03*
G01*
X2882900Y-3337052D03*
G01*
X2882900Y-3937000D03*
G01*
X3282950Y-3337052D03*
G01*
X3282950Y-3937000D03*
D21*
G01*
X2211400Y-2452395D03*
G01*
X2411399Y-2452395D03*
G01*
X2061387Y-2652395D03*
G01*
X2561386Y-2652395D03*
G01*
X2111400Y-2852394D03*
G01*
X2311400Y-2852394D03*
G01*
X2511399Y-2852394D03*
D22*
G01*
X2184400Y-1879600D03*
G01*
X2438400Y-1879600D03*
G01*
X2692400Y-1879600D03*
D23*
G01*
X5511800Y-2362200D03*
G01*
X5511800Y-2108200D03*
G01*
X5511800Y-1854200D03*
D24*
G01*
X5511927Y-1600072D03*
D23*
G01*
X5511800Y-2616200D03*
G01*
X5511800Y-2870200D03*
D25*
G01*
X4876800Y-2913379D03*
G01*
X4876800Y-2512060D03*
G01*
X4876800Y-2712720D03*
G01*
X5511800Y-3733800D03*
G01*
X3351936Y-2286000D03*
M02*
